<?xml version="1.0" standalone="no"?>
<!DOCTYPE svg PUBLIC "-//W3C//DTD SVG 1.1//EN" "http://www.w3.org/Graphics/SVG/1.1/DTD/svg11.dtd" >
<svg xmlns="http://www.w3.org/2000/svg">
<metadata>
This is a custom SVG webfont generated by Font Squirrel.
Copyright   : Copyright c 2008 by Hubert Jocham All rights reserved
Designer    : Hubert Jocham
Foundry     : Hubert Jocham
Foundry URL : httpwwwhubertjochamdeindexphptype
</metadata>
<defs>
<font id="NarzissUltraboldDrops" horiz-adv-x="1228" >
<font-face units-per-em="2048" ascent="1536" descent="-512" />
<missing-glyph horiz-adv-x="512" />
<glyph unicode=" "  horiz-adv-x="512" />
<glyph unicode="&#x09;" horiz-adv-x="512" />
<glyph unicode="&#xa0;" horiz-adv-x="512" />
<glyph unicode="!" horiz-adv-x="598" d="M82 1225q0 104 61.5 161.5t155.5 57.5q96 0 156.5 -57.5t60.5 -161.5q0 -100 -32.5 -194.5t-73.5 -160t-74 -173t-33 -230.5h-8q0 123 -33 230.5t-74 173t-73.5 159.5t-32.5 195zM106 164q0 80 54.5 129t136.5 49q80 0 131 -47t51 -125q0 -80 -54 -131t-134 -51 q-82 0 -133.5 49t-51.5 127z" />
<glyph unicode="&#x22;" horiz-adv-x="1073" d="M123 1253q0 88 46 139.5t138 51.5q88 0 136.5 -52.5t48.5 -138.5q0 -74 -45.5 -159.5t-91.5 -184t-46 -202.5h-8q0 104 -45 201.5t-89 182.5t-44 162zM582 1253q0 88 46 139.5t138 51.5q88 0 136 -52.5t48 -138.5q0 -74 -45 -159.5t-91 -184t-46 -202.5h-8 q0 104 -45 201.5t-89 182.5t-44 162z" />
<glyph unicode="#" horiz-adv-x="1064" d="M100 385v6q125 0 232 4q23 168 47 285q-106 4 -232 4v6q127 0 234 4q39 209 63 355h7q-23 -137 -52 -355q154 6 158 6q27 0 51.5 -1t54 -3t46.5 -2q49 262 63 355h6q-18 -113 -51 -355q107 -4 240 -4v-6q-131 0 -242 -4q-16 -137 -45 -285q106 -4 240 -4v-6 q-137 0 -244 -4q-31 -141 -68 -381h-6q4 20 53 379q-98 -4 -145 -4q-57 0 -160 4q-39 -188 -69 -379h-7q18 113 56 381q-106 4 -230 4zM354 395q154 6 156 6l147 -6q33 211 48 283q-98 -4 -148 -4q-57 0 -160 4q-20 -176 -43 -283z" />
<glyph unicode="$" d="M70 4v473h10q20 -213 133 -349t307 -136q41 0 107 12v490q-39 18 -115 48.5t-125 52t-111.5 61.5t-100.5 85t-64.5 116t-26.5 157q0 182 135 306t408 134v182h8v-182q6 0 18.5 1t20.5 1q100 0 222 -38t161 -38q63 0 69 76h7v-463h-9q-29 205 -131 327t-284 122 q-29 0 -74 -8v-492q39 -18 115 -45l126 -45q50 -18 113.5 -56t102 -82t65.5 -116t27 -164q0 -184 -137.5 -311t-411.5 -143v-146h-8v146q-12 0 -33 -1.5t-33 -1.5q-123 0 -251 52.5t-163 52.5q-59 0 -69 -78h-8zM444 1188q0 -164 183 -244v490q-92 -20 -137.5 -86 t-45.5 -160zM635 6q178 55 178 254q0 143 -178 229v-483z" />
<glyph unicode="%" d="M41 1079q0 166 83 269.5t216 103.5q139 0 216 -98.5t77 -268.5t-82 -272t-213 -102q-141 0 -219 98t-78 270zM242 1085q0 -211 18.5 -288.5t77.5 -77.5q53 0 72.5 77.5t19.5 282.5t-18.5 284t-71.5 79q-61 0 -79.5 -74t-18.5 -283zM291 -51l307 766l328 766h6l-303 -766 l-137 -309q-93 -207 -195 -457h-6zM596 346q0 166 83 269.5t216 103.5q139 0 216 -98.5t77 -268.5t-82 -272.5t-213 -102.5q-141 0 -219 98.5t-78 270.5zM797 352q0 -211 18.5 -288.5t77.5 -77.5q53 0 72.5 77.5t19.5 282.5t-18.5 284t-71.5 79q-61 0 -79.5 -74t-18.5 -283z " />
<glyph unicode="&#x26;" horiz-adv-x="1748" d="M82 408q0 186 179 283t495 104h-11q-242 0 -364 88q-125 90 -125 219q0 158 152.5 239.5t400.5 81.5q201 0 305.5 -69.5t104.5 -179.5q0 -74 -53.5 -125.5t-133.5 -51.5q-74 0 -123 38t-49 98q0 68 46 105.5t112 37.5q55 0 104 -26.5t52 -26.5q10 0 10 10 q0 55 -63.5 108.5t-194.5 53.5q-111 0 -180.5 -70t-69.5 -223q0 -305 203 -305h53v-6h-70q-154 0 -251 -94.5t-97 -297.5q0 -193 106.5 -301t290.5 -108q188 0 296 116.5t108 282.5q0 133 -60.5 210t-162.5 77q-133 0 -197 -46t-64 -116q0 -10 11 -10q2 0 43 16.5t84 16.5 q66 0 108.5 -36t42.5 -104q0 -61 -48 -100t-122 -39q-82 0 -134 47t-52 129q0 104 84 178t270 74q121 0 208 17.5t129 45t59.5 55t17.5 54.5q0 10 -10 10q-2 0 -40 -16t-81 -16q-66 0 -109 34.5t-43 102.5q0 61 48.5 101t121.5 40q82 0 134.5 -47t52.5 -129 q0 -98 -101.5 -173t-306.5 -85q236 -8 363 -89t127 -206q0 -168 -198 -288t-585 -120q-416 0 -619.5 115t-203.5 316z" />
<glyph unicode="'" horiz-adv-x="614" d="M123 1253q0 88 46 139.5t138 51.5q88 0 136.5 -52.5t48.5 -138.5q0 -74 -45.5 -159.5t-91.5 -184t-46 -202.5h-8q0 104 -45 201.5t-89 182.5t-44 162z" />
<glyph unicode="(" horiz-adv-x="839" d="M82 662q0 360 199.5 586.5t517.5 307.5v-6q-158 -51 -223.5 -246.5t-65.5 -627.5q0 -434 65.5 -635t223.5 -252v-8q-319 82 -518 303t-199 578z" />
<glyph unicode=")" horiz-adv-x="839" d="M41 1556q319 -82 518 -303t199 -577q0 -360 -200 -586.5t-517 -308.5v6q158 51 223.5 246.5t65.5 628.5q0 434 -65.5 634.5t-223.5 251.5v8z" />
<glyph unicode="*" horiz-adv-x="950" d="M78 1174q18 57 59 80q24 13 50 13q18 0 38 -7q39 -12 75 -55.5t78 -89.5t93 -64q-2 68 -61.5 160t-59.5 141t32 80.5t93 31.5q59 0 93 -31.5t34 -80.5t-60.5 -141.5t-62.5 -159.5q63 23 133 108.5t115 100.5q20 7 38 7q26 0 50 -13q41 -23 59 -80q10 -31 10 -56 q0 -71 -79 -98q-15 -5 -37 -5q-44 0 -115 19q-62 16 -111 16q-33 0 -59 -8q33 -43 89 -68l109 -46q52 -21 77 -54q22 -28 22 -61q0 -11 -2 -22q-10 -46 -57 -82q-44 -32 -83 -32q-47 0 -85 50q-29 39 -35 146.5t-43 162.5q-37 -55 -43 -162.5t-33 -146.5q-38 -50 -85 -50 q-39 0 -83 32q-47 37 -56 83q-2 11 -2 21q0 34 22 61q27 37 129 76t143 92q-25 7 -57 7q-48 0 -111 -16q-70 -18 -114 -18q-22 0 -38 5q-80 27 -80 97q0 26 11 57z" />
<glyph unicode="+" horiz-adv-x="1064" d="M123 535v6q135 0 248.5 5t148.5 5q0 45 5 153.5t5 243.5h7q0 -141 5 -257t5 -140q23 0 139.5 -5t255.5 -5v-6q-133 0 -242.5 -5.5t-152.5 -5.5q0 -33 -5 -147.5t-5 -247.5h-7q0 127 -5 235.5t-5 159.5q-51 0 -159.5 5.5t-237.5 5.5z" />
<glyph unicode="," horiz-adv-x="614" d="M121 -348q147 39 235 131t88 207q0 31 -32 30q-16 0 -52 -10t-67 -10q-74 0 -122 44t-48 124q0 78 51 127t129 49q90 0 141.5 -61.5t51.5 -163.5q0 -182 -97.5 -305t-277.5 -170v8z" />
<glyph unicode="-" horiz-adv-x="813" d="M102 578v6q100 0 179 9t122 9q37 0 120.5 -9t187.5 -9v-6q-104 0 -187.5 -9.5t-120.5 -9.5q-43 0 -121.5 9.5t-179.5 9.5z" />
<glyph unicode="." horiz-adv-x="614" d="M123 164q0 80 53 129t135 49q80 0 130.5 -47t50.5 -125q0 -80 -53.5 -131t-133.5 -51q-82 0 -132 49t-50 127z" />
<glyph unicode="/" horiz-adv-x="751" d="M96 -51l157 447q69 204 112 319l286 766h6l-262 -766l-293 -766h-6z" />
<glyph unicode="0" d="M74 516q0 240 160.5 392.5t396.5 152.5q240 0 390 -146.5t150 -386.5q0 -238 -159.5 -392t-390.5 -154q-242 0 -394.5 148.5t-152.5 385.5zM465 526q0 -272 35 -404t121 -132q90 0 124.5 127t34.5 401.5t-32.5 404.5t-116.5 130q-94 0 -130 -126t-36 -401z" />
<glyph unicode="1" d="M109 0v6h313v957l-234 -43v6l686 129v-1049h295v-6h-1060z" />
<glyph unicode="2" d="M63 0l476 420q82 72 116.5 150.5t34.5 185.5q0 131 -57.5 203.5t-163.5 72.5q-150 0 -231.5 -79t-81.5 -148q0 -10 10 -10q2 0 51 25.5t107 25.5q72 0 120 -41t48 -117q0 -86 -55.5 -138t-143.5 -52t-143.5 59t-55.5 148q0 156 129 255t379 99q266 0 402.5 -74 t136.5 -235q0 -111 -118 -202t-327 -173l-227 -90h352q301 0 379 157h10l-123 -442h-1024z" />
<glyph unicode="3" d="M92 12q0 86 61.5 149.5t149.5 63.5q86 0 135 -48t49 -122q0 -78 -51 -123t-129 -45q-45 0 -102.5 31t-61.5 31q-10 0 -10 -12q0 -76 92 -149t256 -73q143 0 222 96.5t79 258.5q0 319 -227 319h-246v6h236q211 0 211 328q0 145 -60.5 233t-173.5 88q-276 0 -325 -333h-7 v342h7q4 -53 59 -54q29 0 136.5 30t207.5 30q276 0 426 -82t150 -236q0 -131 -110 -221t-278 -117q172 -14 285 -101t113 -230q0 -172 -174 -271.5t-457 -99.5q-231 0 -347 87t-116 224z" />
<glyph unicode="4" d="M53 0l932 1090v-877q145 0 213 141h8l-88 -354h-133v-295h141v-4h-708v6h141v293h-506zM244 211h315v369z" />
<glyph unicode="5" d="M80 27q0 86 57.5 146t145.5 60q86 0 135 -48t49 -122q0 -78 -51 -122.5t-129 -44.5q-51 0 -105.5 30.5t-58.5 30.5q-10 0 -10 -12q0 -78 88 -152t250 -74q145 0 219.5 100.5t74.5 293.5q0 350 -296 350q-61 0 -114.5 -14.5t-87.5 -35t-59.5 -42t-35.5 -35.5l-11 -14h-8 l131 679h508q158 0 250 37t135 121h6l-119 -440h-827l-76 -389q4 8 14.5 20t50.5 44t87 56.5t129 45t174 20.5q262 0 414.5 -93t152.5 -288q0 -203 -170 -318.5t-458 -115.5q-231 0 -343 91t-112 235z" />
<glyph unicode="6" d="M66 500q0 170 81.5 326.5t211.5 266t280 184t293 101.5v-6q-133 -49 -261 -238.5t-175 -453.5q12 12 34.5 29.5t94 47t145.5 29.5q197 0 306.5 -96t109.5 -274q0 -199 -157 -314.5t-394 -115.5q-268 0 -418.5 130t-150.5 384zM485 502q0 -272 36 -389t114 -117 q80 0 107.5 91t27.5 300q0 178 -32.5 258t-127.5 80q-66 0 -116 -55q-8 -78 -9 -168z" />
<glyph unicode="7" d="M74 606l119 432h1001l-287 -522q-137 -254 -137 -584q0 -127 -56.5 -191.5t-156.5 -64.5q-84 0 -138 53.5t-54 133.5q0 119 81.5 247t253.5 314l314 338h-549q-307 0 -383 -156h-8z" />
<glyph unicode="8" d="M43 346q0 145 135 235.5t389 98.5q-233 18 -367 102t-134 217q0 172 150.5 257t395.5 85q252 0 400.5 -79.5t148.5 -249.5q0 -135 -135 -226.5t-364 -105.5q256 -8 390 -93t134 -229q0 -178 -149.5 -275t-422 -97t-422 92t-149.5 268zM453 346q0 -182 36.5 -267 t124.5 -85t123 81t35 261q0 178 -36 259t-124 81t-123.5 -79t-35.5 -251zM471 995q0 -164 32.5 -239.5t108.5 -75.5q80 0 114 79t34 247q0 180 -34 253.5t-114 73.5q-78 0 -109.5 -77.5t-31.5 -260.5z" />
<glyph unicode="9" d="M49 627q0 199 156.5 314.5t394.5 115.5q268 0 418.5 -130t150.5 -384q0 -170 -81.5 -327t-212 -266.5t-280 -184t-292.5 -101.5v6q133 49 261 238.5t175 453.5q-12 -12 -34.5 -29.5t-94 -47t-145.5 -29.5q-197 0 -306.5 96.5t-109.5 274.5zM465 655q0 -178 32.5 -258 t127.5 -80q66 0 116 56q8 78 9 168q0 272 -36 389t-114 117q-80 0 -107.5 -91.5t-27.5 -300.5z" />
<glyph unicode=":" horiz-adv-x="634" d="M123 164q0 80 53 129t135 49q80 0 130.5 -47t50.5 -125q0 -80 -53.5 -131t-133.5 -51q-82 0 -132 49t-50 127zM123 860q0 80 53 129t135 49q80 0 130.5 -47t50.5 -125q0 -80 -53.5 -131t-133.5 -51q-82 0 -132 49t-50 127z" />
<glyph unicode=";" horiz-adv-x="634" d="M121 -348q147 39 235 131t88 207q0 31 -32 30q-16 0 -52 -10t-67 -10q-74 0 -122 44t-48 124q0 78 51 127t129 49q90 0 141.5 -61.5t51.5 -163.5q0 -182 -97.5 -305t-277.5 -170v8zM123 860q0 80 53 129t135 49q80 0 130.5 -47t50.5 -125q0 -80 -53.5 -131t-133.5 -51 q-82 0 -132 49t-50 127z" />
<glyph unicode="&#x3c;" horiz-adv-x="1064" d="M102 537q0 10 17 16q98 31 317 95l484 149l2 -6l-768 -254l768 -254l-2 -7l-484 148l-317 96q-17 6 -17 17z" />
<glyph unicode="=" horiz-adv-x="1064" d="M102 412v6q133 0 241 5t165 5q49 0 162 -5t252 -5v-6q-139 0 -252 -5.5t-162 -5.5q-57 0 -164.5 5.5t-241.5 5.5zM102 657v7q133 0 241 5t165 5q49 0 162 -5t252 -5v-7q-139 0 -252 -5t-162 -5q-57 0 -164.5 5t-241.5 5z" />
<glyph unicode="&#x3e;" horiz-adv-x="1064" d="M102 283l768 254l-768 254l2 6l484 -149q219 -64 317 -95q17 -6 17 -17q0 -10 -17 -16l-317 -96l-484 -148z" />
<glyph unicode="?" horiz-adv-x="966" d="M61 1149q0 127 107.5 210t312.5 83q207 0 315.5 -83t108.5 -235q0 -111 -51 -186.5t-123 -117.5t-144.5 -78.5t-123.5 -94t-51 -139.5l12 -64h-8q-35 92 -35 168q0 78 24.5 142.5t53 106.5t53.5 121t25 179q0 119 -50.5 185.5t-136.5 68.5h-7q-85 0 -142 -50 q-58 -52 -58 -110q0 -14 15 -14q4 0 39.5 16.5t66.5 16.5q59 0 102.5 -38t43.5 -103q0 -68 -48.5 -113t-125.5 -45q-76 0 -125.5 49t-49.5 125zM264 164q0 80 54.5 129t136.5 49q80 0 131 -47t51 -125q0 -80 -54.5 -131t-133.5 -51q-82 0 -133.5 49t-51.5 127z" />
<glyph unicode="@" horiz-adv-x="1888" d="M102 645q0 350 248 570.5t678 220.5q346 0 552 -200t206 -505q0 -244 -126 -388t-312 -144q-92 0 -155 52t-89 146q-2 -8 -5 -21.5t-22.5 -48t-48.5 -61t-87 -48t-132 -21.5q-113 0 -184.5 56t-71.5 150q0 90 58.5 141.5t141.5 72t164.5 44t140 83t58.5 161.5 q0 88 -53 134t-139 46q-115 0 -185.5 -49t-70.5 -98q0 -8 8 -8l37 20q39 18 80 19q53 0 90 -33t37 -88q0 -59 -45.5 -98t-114.5 -39q-68 0 -111 41t-43 102q0 106 105.5 176t294.5 70q201 0 306 -79t105 -230v-420q0 -96 90 -97q102 0 187.5 126t85.5 331q0 301 -205 501 t-547 200q-319 0 -481 -222.5t-162 -562.5q0 -219 67.5 -388t218 -274.5t367.5 -105.5q119 0 224.5 24.5t171 59.5t113.5 70t69 59l20 25h11q-8 -10 -23.5 -27.5t-71 -61.5t-122 -77t-178 -60.5t-236.5 -27.5q-430 0 -672 217t-242 565zM870 432q0 -137 111 -137 q49 0 82 35.5t33 105.5v342q-18 -33 -61 -71l-76 -67q-33 -30 -61 -85t-28 -123z" />
<glyph unicode="A" horiz-adv-x="1687" d="M10 0v8h13q154 0 235 221l444 1205h310l538 -1428h127v-6h-753v6h153l-203 543h-489l-117 -322q-14 -39 -14 -75q0 -38 17 -74q32 -68 122 -70h21v-8h-404zM387 555h485l-243 657z" />
<glyph unicode="B" horiz-adv-x="1484" d="M31 0v6h135v1421h-135v7h774q272 0 414.5 -90.5t142.5 -256.5q0 -141 -113.5 -242.5t-287.5 -123.5q211 -6 331.5 -98t120.5 -248q0 -182 -164 -278.5t-458 -96.5h-760zM598 6h125q252 0 252 359q0 348 -234 348h-143v-707zM598 719h98q221 0 222 350q0 160 -52.5 259 t-167.5 99h-100v-708z" />
<glyph unicode="C" horiz-adv-x="1390" d="M82 709q0 334 214 539.5t562 205.5q98 0 202.5 -34t158.5 -34q61 0 73 68h6v-463h-8q-53 449 -385 449q-172 0 -261 -182.5t-89 -526.5q0 -328 102.5 -511t294.5 -183q141 0 237.5 77.5t119.5 233.5h10q-25 -170 -147.5 -270.5t-333.5 -100.5q-365 0 -560.5 202 t-195.5 530z" />
<glyph unicode="D" horiz-adv-x="1658" d="M31 0v6h133v1421h-133v7h741q381 0 603 -196t222 -513q0 -315 -236.5 -520t-588.5 -205h-741zM602 6h150q199 0 284.5 179.5t85.5 527.5q0 336 -90 525t-280 189h-150v-1421z" />
<glyph unicode="E" horiz-adv-x="1310" d="M31 0v6h133v1421h-133v7h1179v-392h-6q-31 193 -126 289t-271 96h-211v-708h82h8q120 1 186 61q68 63 91 189h8v-514h-8q-18 137 -84 197.5t-201 60.5h-82v-707h233q182 0 271.5 84t124.5 297h4v-387h-1198z" />
<glyph unicode="F" horiz-adv-x="1288" d="M31 0v6h135v1421h-135v7h1175v-392h-6q-31 193 -126 289t-271 96h-207v-720h98h8q121 0 186 61q68 63 93 190h8v-514h-8q-20 137 -85 196.5t-202 59.5h-98v-694h162v-6h-727z" />
<glyph unicode="G" horiz-adv-x="1531" d="M82 709q0 332 222 538.5t573 206.5q100 0 213.5 -34t166.5 -34q66 0 74 68h6v-463h-6q-53 449 -403 449q-373 0 -373 -738q0 -716 265 -716h1q188 0 189 284v318h-179v6h670v-6h-123v-623h-8v31q0 78 -22.5 106.5t-73.5 28.5q-68 0 -135.5 -38t-145.5 -75.5t-172 -37.5 q-348 0 -543.5 202.5t-195.5 526.5z" />
<glyph unicode="H" horiz-adv-x="1683" d="M31 0v6h133v1421h-133v7h721v-7h-136v-712h449v712h-133v7h721v-7h-135v-1421h135v-6h-721v6h133v703h-449v-703h136v-6h-721z" />
<glyph unicode="I" horiz-adv-x="784" d="M31 0v6h135v1421h-135v7h723v-7h-133v-1421h133v-6h-723z" />
<glyph unicode="J" horiz-adv-x="1009" d="M61 252q0 80 55.5 135t137.5 55t128 -45t46 -116q0 -70 -45 -112t-113 -42q-29 0 -54.5 8t-40.5 17.5t-17 9.5q-14 0 -15 -12q0 -53 59 -106.5t163 -53.5q96 0 151 59.5t55 165.5q0 92 -28.5 171t-62.5 129t-62.5 145.5t-28.5 213.5v553h-153v7h743v-7h-133v-923 q0 -227 -136.5 -373.5t-344.5 -146.5q-150 0 -227 74.5t-77 193.5z" />
<glyph unicode="K" horiz-adv-x="1599" d="M31 0v6h135v1421h-135v7h721v-7h-134v-837l553 622q51 57 67 106q6 19 7 35q1 25 -15 43q-26 30 -95 31h-15v7h396v-7h-9q-131 0 -327 -217l-115 -129l385 -1075h129v-6h-745v6h120l-235 686l-101 -112v-574h134v-6h-721z" />
<glyph unicode="L" horiz-adv-x="1294" d="M31 0v6h135v1421h-135v7h712v-9h-147v-1419h217q176 0 269.5 104.5t123.5 321.5h6v-432h-1181z" />
<glyph unicode="M" horiz-adv-x="1781" d="M31 0v6q158 0 157 258v1163h-133v7h594l262 -1149l281 1149h559v-9h-135v-1419h135v-6h-700v6h133v1360l-334 -1366h-297l-356 1405v-1141q0 -129 46 -193.5t111 -64.5h11v-6h-334z" />
<glyph unicode="N" horiz-adv-x="1501" d="M31 0v6q158 0 157 258v1163h-133v7h656l604 -1405v1140q0 129 -46 193.5t-112 64.5h-10v7h334v-7q-158 0 -158 -258v-1169h-471l-655 1405v-1141q0 -129 46 -193.5t111 -64.5h11v-6h-334z" />
<glyph unicode="O" horiz-adv-x="1730" d="M92 709q0 322 215 533.5t559 211.5q373 0 572.5 -200.5t199.5 -528.5q0 -324 -214 -536t-558 -212q-373 0 -573.5 202t-200.5 530zM565 721q0 -135 6.5 -233.5t24.5 -199t50 -163t87 -101t133 -38.5q70 0 120 22.5t82 73.5t51.5 107.5t28.5 149.5t12 172t3 202 q0 135 -5 232t-23.5 197.5t-50 163t-86 101.5t-132.5 39q-68 0 -119 -23.5t-82.5 -74t-52 -107.5t-31 -148.5t-13.5 -172t-3 -199.5z" />
<glyph unicode="P" horiz-adv-x="1452" d="M31 0v6h133v1421h-133v7h770q590 0 590 -369q0 -188 -168 -284.5t-451 -96.5h-176v-678h145v-6h-710zM596 690h119q241 0 241 366q0 167 -55 268t-178 101h-127v-735z" />
<glyph unicode="Q" horiz-adv-x="1730" d="M92 715q0 322 215 530.5t559 208.5q373 0 572.5 -198.5t199.5 -524.5q0 -186 -75.5 -340.5t-212.5 -255.5q18 -57 18 -143q0 -111 17.5 -153t62.5 -42q76 0 76 92v58h6v-58q0 -100 -67.5 -163.5t-192.5 -63.5q-262 0 -262 295v41q-76 -10 -142 -10q-375 0 -574.5 200.5 t-199.5 526.5zM565 727q0 -166 10.5 -280.5t38 -222t86 -164t146.5 -62.5v59q0 102 60.5 177t166.5 75q37 0 70 -6q20 143 20 416q0 113 -4 195.5t-14 171t-30.5 149.5t-53.5 111.5t-81 75t-114 24.5q-68 0 -119 -22.5t-82.5 -73t-52 -106.5t-31 -146t-13.5 -171t-3 -200z M852 -2q2 0 6 -1t8 -1q84 0 142 37q0 110 -81 110h-1q-74 0 -74 -92v-53z" />
<glyph unicode="R" horiz-adv-x="1531" d="M31 0v6h135v1421h-135v7h784q590 0 590 -369q0 -150 -142.5 -249t-365.5 -118q229 -16 335.5 -106t106.5 -275q0 -111 16.5 -149.5t63.5 -38.5q76 0 76 92v51h6v-59q0 -98 -77.5 -167t-209.5 -69q-141 0 -217.5 85t-76.5 237q0 78 -4.5 130t-19.5 107.5t-42 87t-74 52 t-114 20.5h-68v-690h145v-6h-712zM598 702h131q242 0 242 357q0 164 -55.5 265t-178.5 101h-139v-723z" />
<glyph unicode="S" horiz-adv-x="1355" d="M92 4v473h10q23 -213 141.5 -349t321.5 -136q154 0 231.5 75.5t77.5 192.5q0 98 -78.5 162.5t-191 105.5t-226.5 89.5t-193 146.5t-79 248q0 190 155 316t466 126q106 0 234.5 -38t168.5 -38q63 0 74 76h6v-463h-8q-29 205 -138.5 327t-299.5 122q-139 0 -209 -70 t-70 -184q0 -82 43 -137.5t112 -87t151.5 -58t165.5 -59.5t152 -79t112 -130t43 -201q0 -197 -163 -327t-493 -130q-129 0 -264 52.5t-170 52.5q-63 0 -74 -78h-8z" />
<glyph unicode="T" horiz-adv-x="1525" d="M82 1020v493h6q6 -79 74 -79h2h1198q70 0 76 79h6v-493h-8q-47 407 -383 407h-2h-62v-1421h133v-6h-721v6h136v1421h-62q-342 0 -385 -407h-8z" />
<glyph unicode="U" horiz-adv-x="1499" d="M20 1427v7h721v-7h-133v-917q0 -168 96.5 -267.5t252 -99.5t253 98.5t97.5 276.5v656q0 129 -49.5 191t-116.5 62h-13v7h351v-7h-13q-66 0 -108.5 -62t-42.5 -191v-656q0 -236 -166 -386t-414 -150q-254 0 -416.5 146t-162.5 372v927h-136z" />
<glyph unicode="V" horiz-adv-x="1576" d="M10 1427v7h760v-7h-149l370 -1218l316 975q16 63 16 117.5t-36 90t-103 35.5h-21v7h404v-7h-13q-158 0 -237 -245l-383 -1182h-320l-475 1427h-129z" />
<glyph unicode="W" horiz-adv-x="2142" d="M10 1427v7h713v-7h-137l270 -1232l197 798l-90 434h-121v7h710v-7h-139l246 -1232l227 1007q8 34 8 65q0 49 -20 89q-32 66 -125 71h-20v7h403v-7h-12q-82 0 -140.5 -59t-83.5 -168l-274 -1200h-352l-213 977l-240 -977h-350l-324 1427h-133z" />
<glyph unicode="X" horiz-adv-x="1556" d="M10 0v6h15q158 0 331 238l256 348l-467 835h-114v7h755v-7h-135l301 -561l238 326q33 46 45 100q4 18 4 34q0 32 -16 60q-24 40 -88 41h-19v7h430v-7h-14q-158 0 -332 -237l-244 -330l476 -854h114v-6h-753v6h133l-310 578l-249 -342q-33 -46 -45 -100q-4 -18 -5 -35 q0 -33 17 -60q24 -41 88 -41h18v-6h-430z" />
<glyph unicode="Y" horiz-adv-x="1630" d="M10 1427v7h762v-7h-135l387 -686l274 459q31 51 38 100q1 10 1 20q0 37 -23 68q-28 37 -95 39h-17v7h418v-7h-14q-164 0 -301 -231l-277 -463v-727h135v-6h-721v6h133v658l-450 763h-115z" />
<glyph unicode="Z" horiz-adv-x="1421" d="M82 0l747 1427h-303q-178 0 -270 -103t-123 -323h-8v433h1202l-747 -1428h360q176 0 269.5 104.5t121.5 321.5h8v-432h-1257z" />
<glyph unicode="[" horiz-adv-x="839" d="M123 -193v1729h686v-6h-274v-1716h274v-7h-686z" />
<glyph unicode="\" horiz-adv-x="751" d="M96 1481h6l287 -766q43 -115 111.5 -320t156.5 -446h-6l-293 766z" />
<glyph unicode="]" horiz-adv-x="839" d="M31 -186h276v1716h-276v6h686v-1729h-686v7z" />
<glyph unicode="^" horiz-adv-x="1064" d="M252 129l244 801q6 16 16 16t16 -16l244 -801l-6 -2l-254 768l-254 -768z" />
<glyph unicode="_" horiz-adv-x="1024" d="M-4 -207h1032v-6h-1032v6z" />
<glyph unicode="`" horiz-adv-x="1024" d="M246 1403q0 45 28.5 72.5t77.5 27.5q41 0 72 -14q41 -18 152.5 -117.5t209.5 -134.5l-2 -6q-86 25 -241.5 36t-202.5 23q-94 25 -94 113z" />
<glyph unicode="a" horiz-adv-x="1198" d="M72 227q0 90 46 146.5t114 77.5l149 48q80 27 148.5 55t114.5 97.5t46 176t-60.5 163t-160.5 56.5q-109 0 -190.5 -47.5t-81.5 -90.5q0 -14 16 -14q4 0 17.5 6t36 12.5t44.5 6.5q66 0 114 -42t48 -112q0 -66 -48 -110t-124 -44q-70 0 -118 49t-48 121q0 127 107.5 204 t331 77t339 -95.5t115.5 -277.5v-463q0 -116 81 -116h1q37 0 59.5 31.5t22.5 80.5h6q-4 -106 -64.5 -176t-183.5 -70q-215 0 -270 224q-2 -8 -7 -23.5t-27.5 -54.5t-55.5 -68.5t-94.5 -54.5t-139.5 -25q-125 0 -204.5 68t-79.5 184zM426 262q0 -90 36 -136t87 -46 q55 0 89 46t34 130v420q-25 -41 -73 -88l-83 -81q-35 -34 -62.5 -97.5t-27.5 -147.5z" />
<glyph unicode="b" horiz-adv-x="1255" d="M20 1427v7h478v-545q2 6 7 18.5t25.5 43t50 53t84 42t119.5 19.5q184 0 287 -134t103 -368q0 -266 -144.5 -422.5t-398.5 -156.5q-90 0 -163 33.5t-129 67.5t-106 34q-88 -1 -139 -185h-8q59 201 59 299v1194h-125zM498 770v-555q0 -221 131 -221q170 0 170 520 q0 473 -172 473q-55 0 -92 -50t-37 -167z" />
<glyph unicode="c" horiz-adv-x="1050" d="M82 516q0 246 140 397.5t378 151.5q190 0 289.5 -86t99.5 -213q0 -88 -54 -141.5t-136 -53.5q-74 0 -119 45.5t-45 112.5q0 78 45 122t111 44q29 0 53 -6t38.5 -12.5t16.5 -6.5q16 0 16 15q0 51 -53 103t-162 52q-247 0 -247 -508q0 -229 63.5 -342.5t210.5 -113.5 q102 0 169 61.5t83 171.5h8q-20 -147 -128.5 -238t-293.5 -91q-231 0 -357 141t-126 395z" />
<glyph unicode="d" horiz-adv-x="1286" d="M82 508q0 250 105.5 403.5t281.5 153.5q193 0 274 -145q14 -31 15 -31v538h-144v7h502v-1192q0 -68 17.5 -99.5t60.5 -31.5q39 0 62.5 30.5t23.5 81.5h6q0 -104 -62.5 -173.5t-185.5 -69.5q-211 0 -270 237q-2 -10 -7 -25.5t-27.5 -56.5t-53.5 -72.5t-87 -57t-124 -25.5 q-178 0 -282.5 142t-104.5 386zM457 518q0 -227 40 -331.5t132 -104.5q129 0 129 217v477q0 113 -38 162t-91 49q-172 0 -172 -469z" />
<glyph unicode="e" horiz-adv-x="1130" d="M82 512q0 246 147.5 399.5t386.5 153.5q221 0 327 -82t106 -211q0 -109 -57 -168q-56 -60 -137 -80l-162 -40q-81 -20 -137 -77t-56 -161q0 -106 65.5 -173t174 -67t183 60.5t74.5 115.5q0 12 -12 13l-35 -21q-37 -20 -73 -20q-70 0 -106 42t-36 97q0 61 43 108.5 t109 47.5q72 0 117 -44.5t45 -119.5q0 -131 -112 -218t-312 -87q-254 0 -398.5 142t-144.5 390zM467 557q0 -147 20 -264q10 53 38 91t56.5 65.5t57.5 63.5t47.5 105.5t18.5 172.5q-1 266 -97 266q-141 0 -141 -500z" />
<glyph unicode="f" horiz-adv-x="774" d="M20 0v6h140v1026h-140v6h140v101q0 150 96 242t246 92q127 0 193.5 -54.5t66.5 -142.5q0 -68 -41 -111t-103 -43q-59 0 -94 34t-35 91q0 53 35 86t90 33q16 0 35 -5t30 -10t13 -5q12 0 13 10q0 41 -42 71.5t-112 30.5q-74 0 -118 -47t-44 -119q0 -35 7 -66.5t15.5 -53 t28 -63.5t31.5 -71h248v-6h-246q63 -158 64 -360v-666h135v-6h-652z" />
<glyph unicode="g" horiz-adv-x="1136" d="M76 -45q0 74 50 120t122 46q70 0 114 -38t44 -99q0 -66 -40 -102t-98 -36q-18 0 -40.5 6.5t-26.5 6.5q-18 0 -19 -19q0 -45 73 -86t183 -41q154 0 240 79t86 204q0 104 -55.5 160.5t-141.5 56.5q-59 0 -136 -21.5t-140 -21.5q-76 0 -119 40t-43 101q0 76 52 118t128 48 q-82 20 -140 87t-58 173q0 158 124.5 241t335.5 83q47 0 118 -10.5t114 -10.5q70 0 119 27t49 59q0 14 -15 15l-30 -11q-31 -12 -60 -12q-63 0 -107 39t-44 111q0 66 48 109.5t124 43.5q82 0 129 -43t47 -116q0 -86 -67.5 -153t-182.5 -83q123 -35 170 -103.5t47 -174.5 q0 -141 -130 -232.5t-331 -91.5q-41 0 -129 15.5t-118 15.5q-184 0 -185 -144q0 -59 40 -96t114 -37q55 0 116.5 31t110.5 66.5t123 66.5t150 31q137 0 220 -75t83 -206q0 -180 -163 -285.5t-427 -105.5q-201 0 -314.5 67.5t-113.5 186.5zM461 745q0 -162 24.5 -237.5 t86 -75.5t86 74t24.5 233q0 164 -26.5 239t-84.5 75q-63 0 -86.5 -72t-23.5 -236z" />
<glyph unicode="h" horiz-adv-x="1296" d="M20 0v6h117v1421h-117v7h480v-582q2 8 8 22.5t31.5 50.5t59.5 62.5t95.5 49t136.5 22.5q147 0 223 -96.5t76 -274.5v-452q0 -68 16.5 -96.5t59.5 -28.5q78 0 82 112h8q-4 -104 -70.5 -175t-191.5 -71q-111 0 -189.5 76t-78.5 215v561q0 70 -32 108t-89 38 q-63 0 -104 -60.5t-41 -166.5v-742h96v-6h-576z" />
<glyph unicode="i" horiz-adv-x="641" d="M20 0v6h121v1026h-121v6h484v-1032h117v-6h-601zM129 1296.5q0 69.5 55.5 113.5t139.5 44q82 0 134 -42t52 -111.5t-55.5 -115.5t-137.5 -46q-84 0 -136 44t-52 113.5z" />
<glyph unicode="j" horiz-adv-x="649" d="M-61 -150q0 61 39.5 101.5t103.5 40.5q61 0 94 -33t33 -86q0 -55 -35 -84t-92 -29q-16 0 -32 6l-28 9q-12 4 -14 4q-12 0 -12 -10q0 -41 48 -74t124 -33q74 0 117 47t43 135q0 80 -23.5 151t-53.5 118t-53.5 131t-23.5 184v604h-119v6h486v-987q0 -168 -107.5 -280.5 t-265.5 -112.5q-113 0 -171 55.5t-58 136.5zM166 1296.5q0 69.5 55 113.5t139 44q82 0 134.5 -42t52.5 -111.5t-55.5 -115.5t-137.5 -46q-84 0 -136 44t-52 113.5z" />
<glyph unicode="k" horiz-adv-x="1267" d="M20 0v6h117v1421h-117v7h480v-652q25 80 94.5 155t173.5 105q66 18 127 19q154 0 223.5 -68.5t69.5 -179.5q0 -68 -21.5 -116t-73 -80.5t-94.5 -49t-127 -43.5l125 -254q29 -59 52.5 -80.5t72.5 -21.5q41 0 70 29.5t29 74.5h6q0 -86 -37 -158.5t-111 -107.5 q-55 -26 -120 -26h-5h-8q-110 0 -180 51q-72 53 -133 200l-76 177q20 45 59 81.5t78 61t76 52.5t59.5 69t22.5 96q0 78 -41 128t-111 50q-92 0 -146 -74.5t-54 -197.5v-668h88v-6h-568z" />
<glyph unicode="l" horiz-adv-x="679" d="M20 1427v7h494v-1198q0 -68 16.5 -96.5t59.5 -28.5q78 0 82 112h8q-4 -104 -74.5 -175t-195.5 -71q-111 0 -190 76t-79 215v1159h-121z" />
<glyph unicode="m" horiz-adv-x="1898" d="M20 0v6h117v1026h-117v6h474v-188q2 8 8 22.5t31.5 50t59.5 63.5t96.5 50.5t139.5 22.5q104 0 178 -57.5t101 -165.5q2 8 8 23t30.5 54t58.5 68t98.5 53.5t144.5 24.5q285 0 285 -369v-454q0 -68 16 -96.5t59 -28.5q78 0 82 112h8q-4 -104 -69.5 -175t-190.5 -71 q-111 0 -187.5 76t-76.5 215v561q0 72 -33.5 108t-83.5 36q-63 0 -103 -60.5t-40 -167.5v-739h94v-6h-538v6h84v823q0 72 -34 108t-83 36q-63 0 -103 -60.5t-40 -167.5v-739h94v-6h-568z" />
<glyph unicode="n" horiz-adv-x="1306" d="M31 0v6h116v1026h-116v6h481v-186q2 8 8 22.5t32 50.5t59.5 62.5t95 49t137.5 22.5q147 0 222 -96.5t75 -274.5v-452q0 -68 16.5 -96.5t59.5 -28.5q78 0 81 112h9q-4 -104 -71 -175t-192 -71q-111 0 -189.5 76t-78.5 215v566q0 141 -119 141q-63 0 -104 -60.5t-41 -166.5 v-742h94v-6h-575z" />
<glyph unicode="o" horiz-adv-x="1251" d="M82 514q0 242 158.5 394.5t392.5 152.5q240 0 388 -145.5t148 -387t-156.5 -395t-389.5 -153.5q-242 0 -391.5 146t-149.5 388zM459 526.5q0 -270.5 38 -405.5t126 -135q92 0 131 130t39 400q0 272 -37 405.5t-123 133.5q-96 0 -135 -129t-39 -399.5z" />
<glyph unicode="p" horiz-adv-x="1265" d="M20 -293h121v1325h-121v6h488v-184q2 8 7 22.5t26.5 52.5t51.5 65.5t86 51t124 23.5q178 0 279.5 -141.5t101.5 -384.5q0 -248 -106.5 -395.5t-284.5 -147.5q-63 0 -116.5 18.5t-83.5 44t-50.5 51t-26.5 44.5l-8 18v-469h117v-6h-605v6zM508 741v-452q0 -113 38 -162 t91 -49q92 0 132 112.5t40 341.5q0 227 -40 331t-132 104q-55 0 -92 -54.5t-37 -171.5z" />
<glyph unicode="q" horiz-adv-x="1232" d="M82 514q0 258 143.5 402.5t399.5 144.5q90 0 163.5 -34t130 -67.5t105.5 -33.5q88 0 139 184h8q-59 -201 -59 -299v-1104h121v-6h-604v6h129v469l-6 -19q-4 -12 -24.5 -42.5t-49.5 -53t-83 -42t-120 -19.5q-184 0 -288.5 139.5t-104.5 374.5zM457 541q0 -463 172 -463 q55 0 92 50t37 167v534q0 221 -131 222q-170 0 -170 -510z" />
<glyph unicode="r" horiz-adv-x="1050" d="M20 0v6h117v1026h-117v6h480v-274q2 12 9 31.5t31.5 69.5t56.5 88t87 70t121 32q106 0 165.5 -68.5t59.5 -177.5q0 -70 -46 -120t-111.5 -50t-108.5 41t-43 106q0 70 43 112t100 42q23 0 47.5 -6t41 -12.5t18.5 -6.5q14 0 14 15q0 41 -50 79t-130 38q-82 0 -144.5 -45.5 t-95.5 -115t-49 -140t-16 -136.5v-604h141v-6h-621z" />
<glyph unicode="s" horiz-adv-x="1054" d="M72 223q0 63 41 105.5t108 42.5q72 0 110 -36t38 -97q0 -55 -35 -88t-90 -33q-33 0 -66 18.5t-37 18.5q-10 0 -10 -11q0 -55 71.5 -104t194.5 -49q111 0 173.5 45t62.5 123q0 70 -40 117t-100.5 68.5t-130 50t-130 59t-100.5 96t-40 162.5q0 154 106.5 253t340.5 99 q106 0 210.5 -33t129.5 -33q53 0 59 60h6v-383h-6q-25 170 -110 270t-224 100q-88 0 -134 -43t-46 -118q0 -82 56.5 -127t137 -67.5t161.5 -51.5t137.5 -102.5t56.5 -196.5q0 -164 -132 -261t-392 -97q-193 0 -285 67.5t-92 175.5z" />
<glyph unicode="t" horiz-adv-x="835" d="M20 1032v6h105v191l362 141v-332h295v-6h-295v-708q0 -111 36 -166.5t118 -55.5q68 0 110 48.5t46 130.5h8q-6 -135 -96.5 -219.5t-233.5 -84.5q-350 0 -350 338v717h-105z" />
<glyph unicode="u" horiz-adv-x="1314" d="M0 817q4 104 72.5 175t193.5 71q111 0 187.5 -76t76.5 -215v-569q0 -137 111 -137q61 0 100 58t39 163v745h-94v6h459v-796q0 -70 16.5 -100.5t59.5 -30.5q37 0 60.5 31.5t25.5 80.5h8q-4 -104 -72.5 -175t-193.5 -71q-217 0 -261 213q-2 -8 -8 -22t-32.5 -51 t-60.5 -64.5t-95.5 -50t-134.5 -22.5q-145 0 -219 93t-74 269v463q0 70 -15.5 97.5t-58.5 27.5q-78 0 -82 -113h-8z" />
<glyph unicode="v" horiz-adv-x="1208" d="M10 1032v6h627v-6h-127l256 -891l199 647q12 50 14 104v7q1 50 -29 89q-32 42 -96 42h-18v8h362v-8h-10q-137 0 -213 -244l-244 -786h-289l-315 1032h-117z" />
<glyph unicode="w" horiz-adv-x="1763" d="M10 1032v6h596v-6h-104l203 -878l174 610l-72 268h-92v6h565v-6h-111l205 -878l156 643q10 53 10 104t-35 90t-98 41h-18v6h364v-6h-12q-143 0 -201 -237l-192 -795h-283l-182 745l-211 -745h-285l-260 1032h-117z" />
<glyph unicode="x" horiz-adv-x="1222" d="M10 1032v6h643v-6h-147l239 -399l148 184q35 43 45 92q3 13 3 25q-1 34 -21 61q-27 37 -93 37h-26v6h393v-6h-8q-109 0 -285 -219l-151 -186l380 -621h82v-6h-641v6h152l-246 404l-162 -187q-48 -55 -48 -110q0 -17 4 -35q20 -72 112 -72h27v-6h-396v6h9q41 0 96 39 t90 76l98 108l164 189l-373 614h-88z" />
<glyph unicode="y" horiz-adv-x="1183" d="M31 1032v6h637v-6h-144l299 -667l100 86q42 38 89 91.5t71.5 110t24.5 113.5q0 39 -29 39q-4 0 -58 -27.5t-106 -29.5h-6q-64 0 -112 45q-49 47 -49 133q0 78 50 130t140 52q100 0 152.5 -64.5t52.5 -179.5q0 -111 -49.5 -210t-122 -168.5t-158.5 -139.5l-159 -125 q-72 -55 -121.5 -123.5t-49.5 -136.5q0 -39 29 -39q4 0 59.5 21.5t98.5 21.5q70 0 119 -42t49 -126q0 -76 -49.5 -123t-133.5 -47q-96 0 -152.5 59.5t-56.5 168.5q0 160 97 272l-422 905h-90z" />
<glyph unicode="z" horiz-adv-x="1067" d="M63 0l523 1032h-195q-141 0 -208.5 -83t-90.5 -234h-6v323h903l-506 -1020q6 -2 42 -12t67 -15t67 -5q70 0 70 53q0 12 -18.5 53t-18.5 72q0 63 46 112.5t120 49.5q66 0 112 -44t46 -118q0 -90 -62.5 -150.5t-183.5 -60.5q-109 0 -254 47t-244 47q-111 0 -209 -47z" />
<glyph unicode="{" horiz-adv-x="839" d="M72 131q0 68 27.5 122t68.5 89l81 66q40 32 67.5 68t27.5 75q0 117 -164 117v8q164 0 164 117q0 39 -27.5 74.5t-67.5 67.5l-81 66q-41 35 -68.5 89.5t-27.5 121.5q0 342 737 349v-9q-180 -2 -250 -66.5t-70 -191.5q0 -88 45.5 -156.5t90.5 -129t45 -125.5 q0 -82 -64.5 -134.5t-128.5 -64.5l-63 -12q10 -2 27.5 -4t61.5 -17.5t77.5 -36t61.5 -61.5t28 -92q0 -66 -45 -127.5t-90.5 -131t-45.5 -153.5q0 -127 70 -191.5t250 -66.5v-8q-737 6 -737 348z" />
<glyph unicode="|" horiz-adv-x="436" d="M205 596q0 111 5 353.5t5 547.5h6q0 -305 5 -547.5t5 -353.5q0 -127 -5 -368.5t-5 -532.5h-6q0 291 -5 532.5t-5 368.5z" />
<glyph unicode="}" horiz-adv-x="839" d="M31 1552v9q737 -6 737 -349q0 -68 -27.5 -122t-68.5 -88l-81 -67q-40 -32 -67.5 -68t-27.5 -74q0 -117 163 -117v-8q-163 0 -163 -116q0 -40 27.5 -76t67.5 -68l81 -66q41 -35 68.5 -89t27.5 -122q0 -342 -737 -348v8q180 2 249.5 66.5t69.5 191.5q0 84 -45 153.5 t-90 131t-45 127.5q0 82 64.5 134t127.5 64l64 13q-10 2 -27.5 4t-61.5 17.5t-78 36t-61.5 61t-27.5 92.5q0 66 45 126t90 128.5t45 156.5q0 127 -69.5 191.5t-249.5 66.5z" />
<glyph unicode="~" d="M88 346q43 152 138.5 251t236.5 99q72 0 137.5 -28.5t107.5 -61.5t105.5 -61.5t132.5 -28.5q144 0 189 133h6q-35 -154 -131.5 -249t-243.5 -95q-92 0 -182 44t-168 87t-137 43q-74 0 -119 -27.5t-66 -105.5h-6z" />
<glyph unicode="&#xa1;" horiz-adv-x="634" d="M143.5 -10.5q32.5 96.5 73.5 166t74 178t33 225.5h8q0 -117 32.5 -225.5t73.5 -179t74 -165.5t33 -188q0 -68 -29 -118q-57 -100 -188 -100h-1q-130 0 -188 100q-28 49 -28 114q0 96 32.5 192.5zM135 862q0 78 51.5 127t132.5 49q80 0 134.5 -51t54.5 -131 q0 -78 -51 -125t-131 -47q-82 0 -136.5 49t-54.5 129z" />
<glyph unicode="&#xa2;" d="M160 516q0 244 139 395.5t377 153.5v168h6v-168q188 -2 291.5 -88t103.5 -207q0 -86 -52 -136t-128 -50q-70 0 -115 43t-45 108q0 74 42 117t108 43q29 0 51.5 -6t34.5 -12.5t14 -6.5q16 0 17 15q0 51 -55.5 103t-164.5 52q-57 0 -102 -26v-910q51 -28 124 -28h5 q102 0 169 61.5t83 171.5h8q-20 -139 -120.5 -229t-268.5 -98v-148h-6v148q-10 -2 -33 -2q-231 0 -357 141t-126 395zM530 528q0 -334 146 -419v901q-146 -97 -146 -482z" />
<glyph unicode="&#xa3;" d="M27 137q0 102 71.5 168t180.5 66q66 0 93 25.5t27 80.5q0 31 -9 58.5t-17 42.5l-8 12h-246v6h239q-20 29 -73.5 84t-89 97t-66.5 115t-31 150q0 178 150.5 288t427.5 110q104 0 230 -35t161 -35q27 0 47.5 21.5t24.5 54.5h4v-465h-8q-18 205 -119 324.5t-287 119.5 q-49 0 -100 -14q-90 -27 -139.5 -99.5t-49.5 -170.5q0 -111 47.5 -204t114 -184t88.5 -157h354v-6h-352q4 -14 4 -33q0 -162 -336 -192q80 -6 260.5 -55.5t288.5 -49.5q98 0 171 48t108 128h8l-139 -477h-68q-125 0 -218 41t-148.5 100.5t-104.5 119t-111.5 100t-142.5 40.5 q-78 0 -122 -34.5t-44 -77.5q0 -12 13 -12q4 0 32.5 12t57.5 12q55 0 91 -37t36 -94q0 -59 -45 -98t-113 -39q-61 0 -102 42t-41 103z" />
<glyph unicode="&#xa5;" d="M18 1427v7h662v-7h-115l248 -565l143 336q25 55 27 104v5q0 45 -29 80q-30 36 -100 38h-18v9h374v-9h-6q-80 0 -134 -55t-105 -176l-144 -334h367v-6h-369v-238h369v-6h-369v-604h135v-6h-706v6h135v604h-346v6h346v238h-346v6h344l-266 567h-97z" />
<glyph unicode="&#xa6;" horiz-adv-x="436" d="M205 104q0 49 5 160t5 250h6q0 -139 5 -249.5t5 -160.5q0 -57 -5 -166.5t-5 -242.5h-6q0 133 -5 242.5t-5 166.5zM205 1085q0 49 5 160t5 250h6q0 -139 5 -249.5t5 -160.5q0 -57 -5 -166.5t-5 -242.5h-6q0 133 -5 242.5t-5 166.5z" />
<glyph unicode="&#xa7;" d="M51 557q0 227 203 338q-92 98 -92 207q0 152 111.5 245t359.5 93q109 0 219.5 -25.5t138.5 -25.5q55 0 62 55h6v-357h-6q-49 340 -334 340q-98 0 -152.5 -55t-54.5 -133q0 -84 68.5 -137t166 -88t195.5 -78t167 -134t69 -229q0 -225 -197 -344q86 -86 86 -202 q0 -152 -111.5 -245t-359.5 -93q-113 0 -221.5 26.5t-136.5 26.5q-58 0 -62 -57h-6v358h8q49 -338 330 -338q96 0 151.5 54.5t55.5 129.5q0 72 -49.5 123t-123 77t-159.5 62.5t-159.5 78.5t-123 126t-49.5 201zM201 780q0 -88 54 -153.5t145.5 -108.5t188.5 -80t206.5 -89 t177.5 -116q57 37 57 115q0 104 -90 185t-204.5 125t-259 108t-218.5 125q-57 -37 -57 -111z" />
<glyph unicode="&#xa8;" horiz-adv-x="1024" d="M86 1337.5q0 69.5 55.5 113.5t139.5 44q82 0 134 -42t52 -111.5t-55.5 -115.5t-137.5 -46q-84 0 -136 44t-52 113.5zM557 1337.5q0 69.5 55.5 113.5t139.5 44q82 0 134 -42t52 -111.5t-55.5 -115.5t-137.5 -46q-84 0 -136 44t-52 113.5z" />
<glyph unicode="&#xa9;" horiz-adv-x="1792" d="M102 715q0 319 225.5 530t565.5 211q344 0 570.5 -210t226.5 -527q0 -319 -226.5 -530.5t-570.5 -211.5q-340 0 -565.5 211t-225.5 527zM201 717q0 -334 181 -533.5t511 -199.5q332 0 515 199.5t183 533.5t-183 533.5t-515 199.5q-330 0 -511 -199.5t-181 -533.5z M489 723q0 195 126 316.5t333 121.5q174 0 262 -81t88 -195q0 -78 -48 -126t-126 -48q-66 0 -108.5 41t-42.5 100q0 74 45 116t115 42q31 0 55 -9.5t37.5 -17.5t17.5 -8q8 0 8 8q0 45 -48 94t-159 49q-227 0 -227 -393q0 -182 56.5 -274t187.5 -92q86 0 147.5 50t77.5 134h8 q-18 -115 -116.5 -186.5t-262.5 -71.5q-203 0 -314.5 114.5t-111.5 315.5z" />
<glyph unicode="&#xaa;" d="M190 856q0 72 49.5 114t119.5 62l142 41q72 21 121.5 74t49.5 139q0 150 -164 150q-84 0 -145.5 -36t-61.5 -71q0 -12 14 -12q6 0 30 10t50 10q45 0 76 -26.5t31 -73.5q0 -45 -36 -79t-99 -34q-51 0 -90 32t-39 87q0 90 89 146.5t251 56.5q350 0 350 -254v-326 q0 -49 13 -69.5t50 -20.5q60 0 66 74h4q-4 -72 -50 -118t-141 -46q-168 0 -204 158q-2 -6 -6.5 -17.5t-24 -38t-45 -47t-73.5 -38t-107 -17.5q-94 0 -157 46t-63 124zM459 887q0 -63 28.5 -92t71.5 -29q45 0 72.5 31t27.5 88v303q-16 -33 -52 -65.5t-67.5 -56.5t-56 -71 t-24.5 -108z" />
<glyph unicode="&#xab;" horiz-adv-x="1290" d="M102 539q0 35 41 61l633 424v-10l-481 -475l481 -478v-10l-635 426q-39 25 -39 62zM516 537q0 41 37 61l635 385v-10l-479 -434l479 -437v-10l-635 385q-37 23 -37 60z" />
<glyph unicode="&#xac;" horiz-adv-x="1064" d="M102 659v7q260 0 478.5 6t322.5 6q29 0 29 -27q0 -68 -7 -211t-7 -311h-7q0 168 -7 309.5t-7 208.5q-104 0 -319.5 6t-475.5 6z" />
<glyph unicode="&#xad;" horiz-adv-x="813" d="M102 578v6q100 0 179 9t122 9q37 0 120.5 -9t187.5 -9v-6q-104 0 -187.5 -9.5t-120.5 -9.5q-43 0 -121.5 9.5t-179.5 9.5z" />
<glyph unicode="&#xae;" horiz-adv-x="1792" d="M102 715q0 319 225.5 530t565.5 211q344 0 570.5 -210t226.5 -527q0 -319 -226.5 -530.5t-570.5 -211.5q-340 0 -565.5 211t-225.5 527zM201 717q0 -334 181 -533.5t511 -199.5q332 0 515 199.5t183 533.5t-183 533.5t-515 199.5q-330 0 -511 -199.5t-181 -533.5z M496 293v6h71v848h-71v6h465q356 0 356 -215q0 -86 -81 -146.5t-212 -80.5q102 -8 171 -60.5t69 -144.5q0 -78 8 -104.5t43 -26.5q49 0 49 61v23h6v-23q0 -70 -55 -113.5t-131 -43.5q-190 0 -191 202q0 141 -19.5 186.5t-90.5 45.5h-45v-414h80v-6h-422zM838 719h65 q78 0 108.5 52t30.5 165q0 111 -28.5 161t-93.5 50h-82v-428z" />
<glyph unicode="&#xaf;" horiz-adv-x="1024" d="M238 1303v124q72 0 155.5 8.5t116.5 8.5q51 0 137 -8.5t141 -8.5v-124q-55 0 -141 -8.5t-137 -8.5q-33 0 -116.5 8.5t-155.5 8.5z" />
<glyph unicode="&#xb0;" horiz-adv-x="929" d="M102 1214q0 109 100.5 179.5t262.5 70.5q158 0 260 -70.5t102 -179t-102 -178t-260 -69.5q-162 0 -262.5 68.5t-100.5 178.5zM362 1214q0 -111 27 -175t76 -64q51 0 78.5 64.5t27.5 174.5q0 113 -27.5 176.5t-78.5 63.5q-49 0 -76 -63.5t-27 -176.5z" />
<glyph unicode="&#xb1;" horiz-adv-x="1064" d="M102 195v6q133 0 241 5t165 5q49 0 162 -5t252 -5v-6q-139 0 -252 -5.5t-162 -5.5q-57 0 -164.5 5.5t-241.5 5.5zM102 637v6q135 0 249 5t149 5q0 39 5 137.5t5 219.5h6q0 -127 5 -231.5t5 -125.5q23 0 139.5 -5t256.5 -5v-6q-133 0 -243 -5t-153 -5q0 -29 -5 -132.5 t-5 -222.5h-6q0 115 -5 212.5t-5 142.5q-51 0 -160 5t-238 5z" />
<glyph unicode="&#xb2;" d="M63 0l476 420q82 72 116.5 150.5t34.5 185.5q0 131 -57.5 203.5t-163.5 72.5q-150 0 -231.5 -79t-81.5 -148q0 -10 10 -10q2 0 51 25.5t107 25.5q72 0 120 -41t48 -117q0 -86 -55.5 -138t-143.5 -52t-143.5 59t-55.5 148q0 156 129 255t379 99q266 0 402.5 -74 t136.5 -235q0 -111 -118 -202t-327 -173l-227 -90h352q301 0 379 157h10l-123 -442h-1024z" />
<glyph unicode="&#xb3;" d="M92 12q0 86 61.5 149.5t149.5 63.5q86 0 135 -48t49 -122q0 -78 -51 -123t-129 -45q-45 0 -102.5 31t-61.5 31q-10 0 -10 -12q0 -76 92 -149t256 -73q143 0 222 96.5t79 258.5q0 319 -227 319h-246v6h236q211 0 211 328q0 145 -60.5 233t-173.5 88q-276 0 -325 -333h-7 v342h7q4 -53 59 -54q29 0 136.5 30t207.5 30q276 0 426 -82t150 -236q0 -131 -110 -221t-278 -117q172 -14 285 -101t113 -230q0 -172 -174 -271.5t-457 -99.5q-231 0 -347 87t-116 224z" />
<glyph unicode="&#xb4;" horiz-adv-x="1024" d="M246 1237q98 35 209.5 134t152.5 118q31 14 72 14q49 0 77.5 -27.5t28.5 -72.5q0 -88 -94 -113q-47 -12 -202.5 -23t-241.5 -36z" />
<glyph unicode="&#xb5;" horiz-adv-x="1290" d="M25 -293h120v1325h-116v6h481v-745q0 -57 1 -80t6 -60.5t16.5 -52t33 -27t54.5 -12.5q80 0 109.5 77t29.5 239v655h-96v6h456v-825q0 -117 76 -117q37 0 60.5 29t27.5 74h6q-6 -119 -87 -169t-177 -50q-209 0 -264 206q-2 -8 -7 -20t-23.5 -46t-42 -59.5t-66 -46 t-91.5 -20.5h-22v-287h117v-6h-602v6z" />
<glyph unicode="&#x3bc;" horiz-adv-x="1290" d="M25 -293h120v1325h-116v6h481v-745q0 -57 1 -80t6 -60.5t16.5 -52t33 -27t54.5 -12.5q80 0 109.5 77t29.5 239v655h-96v6h456v-825q0 -117 76 -117q37 0 60.5 29t27.5 74h6q-6 -119 -87 -169t-177 -50q-209 0 -264 206q-2 -8 -7 -20t-23.5 -46t-42 -59.5t-66 -46 t-91.5 -20.5h-22v-287h117v-6h-602v6z" />
<glyph unicode="&#xb6;" horiz-adv-x="1366" d="M145 1051q0 190 166 286.5t445 96.5h534v-7h-116v-1427h-7v1427h-311v-1427h-6v684h-111q-594 0 -594 367zM590 1057q0 -82 8 -142.5t30.5 -115t66.5 -82t110 -27.5h45v737h-37q-131 0 -177 -97t-46 -273z" />
<glyph unicode="&#xb7;" horiz-adv-x="778" d="M205 580q0 80 53 129t135 49q80 0 130 -47t50 -125q0 -80 -53 -131.5t-133 -51.5q-82 0 -132 49.5t-50 127.5z" />
<glyph unicode="&#xb8;" horiz-adv-x="1024" d="M242 -313q0 29 20.5 51t50.5 22q29 0 47.5 -17t18.5 -44t-15.5 -45.5t-44.5 -18.5q-12 0 -24 6.5t-14 6.5q-10 0 -11 -10q0 -25 33 -46.5t90 -21.5q66 0 107 40t41 118q0 133 -123 133l-88 -27h-11l191 162h10l-184 -154q51 43 199 43q286 0 286 -142q0 -77 -93 -132 t-267 -55q-123 0 -171 39.5t-48 91.5z" />
<glyph unicode="&#xb9;" d="M109 0v6h313v957l-234 -43v6l686 129v-1049h295v-6h-1060z" />
<glyph unicode="&#xba;" d="M197 1065q0 166 122.5 274.5t301.5 108.5q184 0 298.5 -103.5t114.5 -269.5q0 -168 -120.5 -276.5t-299.5 -108.5q-184 0 -300.5 103.5t-116.5 271.5zM483 1073.5q0 -190.5 30 -283t101.5 -92.5t103.5 90.5t32 278.5t-30 279.5t-99 91.5q-76 0 -107 -87t-31 -277.5z" />
<glyph unicode="&#xbb;" horiz-adv-x="1290" d="M102 92v10l480 437l-480 434v10l635 -385q37 -20 37 -61q0 -37 -37 -60zM514 51v10l481 478l-481 475v10l633 -424q41 -27 41 -61q0 -37 -39 -62z" />
<glyph unicode="&#xbc;" horiz-adv-x="2515" d="M109 0v6h313v957l-234 -43v6l686 129v-1049h295v-6h-1060zM933 -51l307 766l328 766h6l-303 -766l-136 -309l-196 -457h-6zM1340 0l932 1090v-877q145 0 213 141h8l-88 -354h-133v-295h141v-4h-708v6h141v293h-506zM1531 211h315v369z" />
<glyph unicode="&#xbd;" horiz-adv-x="2515" d="M109 0v6h313v957l-234 -43v6l686 129v-1049h295v-6h-1060zM933 -51l307 766l328 766h6l-303 -766l-136 -309l-196 -457h-6zM1350 0l476 420q82 72 116.5 150.5t34.5 185.5q0 131 -57.5 203.5t-163.5 72.5q-150 0 -231.5 -79t-81.5 -148q0 -10 10 -10q2 0 51 25.5 t107 25.5q72 0 120 -41t48 -117q0 -86 -55.5 -138t-143.5 -52t-143.5 59t-55.5 148q0 156 129 255t379 99q266 0 402.5 -74t136.5 -235q0 -111 -118 -202t-327 -173l-227 -90h352q301 0 379 157h10l-123 -442h-1024z" />
<glyph unicode="&#xbe;" horiz-adv-x="2515" d="M92 12q0 86 61.5 149.5t149.5 63.5q86 0 135 -48t49 -122q0 -78 -51 -123t-129 -45q-45 0 -102.5 31t-61.5 31q-10 0 -10 -12q0 -76 92 -149t256 -73q143 0 222 96.5t79 258.5q0 319 -227 319h-246v6h236q211 0 211 328q0 145 -60.5 233t-173.5 88q-276 0 -325 -333h-7 v342h7q4 -53 59 -54q29 0 136.5 30t207.5 30q276 0 426 -82t150 -236q0 -131 -110 -221t-278 -117q172 -14 285 -101t113 -230q0 -172 -174 -271.5t-457 -99.5q-231 0 -347 87t-116 224zM933 -51l307 766l328 766h6l-303 -766l-136 -309l-196 -457h-6zM1340 0l932 1090v-877 q145 0 213 141h8l-88 -354h-133v-295h141v-4h-708v6h141v293h-506zM1531 211h315v369z" />
<glyph unicode="&#xbf;" horiz-adv-x="966" d="M61 -98q0 111 51.5 186.5t123 117.5t144.5 79t124 94t51 139l-12 64h8q35 -92 35 -168q0 -78 -24.5 -142.5t-53.5 -106.5t-53.5 -121t-24.5 -179q0 -119 50 -185.5t136 -68.5h7q85 0 141 50q59 52 59 110q0 14 -14 14q-4 0 -40 -16.5t-67 -16.5q-59 0 -102 38t-43 104 q0 68 48 112.5t126 44.5q76 0 125 -49t49 -125q0 -127 -107.5 -210t-312.5 -83q-207 0 -315.5 83t-108.5 235zM330 856q0 80 54 131t134 51q82 0 133 -49t51 -127q0 -80 -54 -129t-136 -49q-80 0 -131 47t-51 125z" />
<glyph unicode="&#xc0;" horiz-adv-x="1687" d="M10 0v8h13q154 0 235 221l444 1205h310l538 -1428h127v-6h-753v6h153l-203 543h-489l-117 -322q-14 -39 -14 -75q0 -39 17 -74q32 -68 122 -70h21v-8h-404zM387 555h485l-243 657zM541 1708q0 45 28.5 72.5t77.5 27.5q41 0 72 -14q41 -18 152.5 -117.5t209.5 -134.5 l-2 -6q-86 25 -241.5 36t-202.5 23q-94 25 -94 113z" />
<glyph unicode="&#xc1;" horiz-adv-x="1687" d="M10 0v8h13q154 0 235 221l444 1205h310l538 -1428h127v-6h-753v6h153l-203 543h-489l-117 -322q-14 -39 -14 -75q0 -39 17 -74q32 -68 122 -70h21v-8h-404zM387 555h485l-243 657zM571 1542q98 35 210 134.5t153 117.5q31 14 72 14q49 0 77.5 -27.5t28.5 -72.5 q0 -88 -94 -113q-47 -12 -203 -23t-242 -36z" />
<glyph unicode="&#xc2;" horiz-adv-x="1687" d="M10 0v8h13q154 0 235 221l444 1205h310l538 -1428h127v-6h-753v6h153l-203 543h-489l-117 -322q-14 -39 -14 -75q0 -39 17 -74q32 -68 122 -70h21v-8h-404zM387 555h485l-243 657zM545 1536v8q45 16 85 55t84 94.5t70 80.5q25 25 63 26h1q38 0 65 -26q20 -20 65.5 -77 t87.5 -95.5t87 -57.5v-8l-305 100z" />
<glyph unicode="&#xc3;" horiz-adv-x="1687" d="M10 0v8h13q154 0 235 221l444 1205h310l538 -1428h127v-6h-753v6h153l-203 543h-489l-117 -322q-14 -39 -14 -75q0 -39 17 -74q32 -68 122 -70h21v-8h-404zM387 555h485l-243 657zM526 1563q45 206 224 206h2q63 0 155 -53t154 -53q90 0 119 80h4q-20 -94 -78.5 -150.5 t-147.5 -56.5q-68 0 -168 53t-147 53q-92 0 -113 -79h-4z" />
<glyph unicode="&#xc4;" horiz-adv-x="1687" d="M10 0v8h13q154 0 235 221l444 1205h310l538 -1428h127v-6h-753v6h153l-203 543h-489l-117 -322q-14 -39 -14 -75q0 -39 17 -74q32 -68 122 -70h21v-8h-404zM387 555h485l-243 657zM428 1693.5q0 69.5 55.5 113.5t139.5 44q82 0 134 -42t52 -111.5t-55.5 -115.5 t-137.5 -46q-84 0 -136 44t-52 113.5zM899 1693.5q0 69.5 55.5 113.5t139.5 44q82 0 134 -42t52 -111.5t-55.5 -115.5t-137.5 -46q-84 0 -136 44t-52 113.5z" />
<glyph unicode="&#xc5;" horiz-adv-x="1687" d="M10 0v8h13q154 0 235 221l444 1205h310l538 -1428h127v-6h-753v6h153l-203 543h-489l-117 -322q-14 -39 -14 -75q0 -39 17 -74q32 -68 122 -70h21v-8h-404zM387 555h485l-243 657zM571 1726.5q0 88.5 81 140.5t202 52q123 0 199.5 -50t76.5 -138.5t-78.5 -141.5 t-199.5 -53q-125 0 -203 51t-78 139.5zM760 1729q0 -187 92 -187q94 0 94 184q0 186 -92 187q-94 0 -94 -184z" />
<glyph unicode="&#xc6;" horiz-adv-x="2252" d="M10 0v6h13q150 0 299 232l776 1189h-166v7h1220v-392h-10q-31 193 -124 288t-269 95h-211v-704h82q129 0 195.5 62.5t89.5 189.5h8v-514h-8q-18 137 -84 196.5t-201 59.5h-82v-709h234q182 0 269 84t122 297h8v-387h-1198v6h133v709h-465l-311 -484q-33 -51 -42 -101 q-2 -12 -2 -23q0 -36 22 -64q30 -37 100 -37h16v-6h-414zM645 721h461v706z" />
<glyph unicode="&#xc7;" horiz-adv-x="1390" d="M82 709q0 334 214 539.5t562 205.5q98 0 202.5 -34t158.5 -34q61 0 73 68h6v-463h-8q-53 449 -385 449q-172 0 -261 -182.5t-89 -526.5q0 -328 102.5 -511t294.5 -183q141 0 237.5 78t119.5 233h10q-25 -170 -147.5 -270.5t-333.5 -100.5q-53 0 -78 3l-162 -136 q51 41 197 41q286 0 286 -142q0 -77 -93 -132t-267 -55q-123 0 -171 39.5t-48 91.5q0 29 20.5 51t50.5 22q29 0 47.5 -17t18.5 -44t-15.5 -45.5t-43.5 -18.5q-12 0 -24.5 6.5t-14.5 6.5q-10 0 -11 -10q0 -25 33 -46.5t90 -21.5q66 0 107 40t41 118q0 133 -123 133l-88 -27 h-10l172 148q-324 25 -497 222t-173 505z" />
<glyph unicode="&#xc8;" horiz-adv-x="1310" d="M31 0v6h133v1421h-133v7h1179v-392h-6q-31 193 -126 289t-271 96h-211v-708h82h8q121 0 186 61q68 62 91 189h8v-514h-8q-18 137 -84 197.5t-201 60.5h-82v-707h233q182 0 271.5 84t124.5 297h4v-387h-1198zM383 1708q0 45 28.5 72.5t77.5 27.5q41 0 72 -14 q41 -18 153 -117.5t210 -134.5l-2 -6q-86 25 -242 36t-203 23q-94 25 -94 113z" />
<glyph unicode="&#xc9;" horiz-adv-x="1310" d="M31 0v6h133v1421h-133v7h1179v-392h-6q-31 193 -126 289t-271 96h-211v-708h82h8q121 0 186 61q68 62 91 189h8v-514h-8q-18 137 -84 197.5t-201 60.5h-82v-707h233q182 0 271.5 84t124.5 297h4v-387h-1198zM406 1563q98 35 209.5 134t152.5 118q31 14 72 14 q49 0 77.5 -27.5t28.5 -72.5q0 -88 -94 -113q-47 -12 -202.5 -23.5t-241.5 -36.5z" />
<glyph unicode="&#xca;" horiz-adv-x="1310" d="M31 0v6h133v1421h-133v7h1179v-392h-6q-31 193 -126 289t-271 96h-211v-708h82h8q121 0 186 61q68 62 91 189h8v-514h-8q-18 137 -84 197.5t-201 60.5h-82v-707h233q182 0 271.5 84t124.5 297h4v-387h-1198zM344 1536v8q45 16 85 55t84 94.5t71 80.5q25 25 62 26h2 q37 0 65 -26q20 -20 65 -77t87 -95.5t87 -57.5v-8l-305 100z" />
<glyph unicode="&#xcb;" horiz-adv-x="1310" d="M31 0v6h133v1421h-133v7h1179v-392h-6q-31 193 -126 289t-271 96h-211v-708h82h8q121 0 186 61q68 62 91 189h8v-514h-8q-18 137 -84 197.5t-201 60.5h-82v-707h233q182 0 271.5 84t124.5 297h4v-387h-1198zM242 1693.5q0 69.5 55 113.5t139 44q82 0 134.5 -42 t52.5 -111.5t-55.5 -115.5t-137.5 -46q-84 0 -136 44t-52 113.5zM713 1693.5q0 69.5 55 113.5t139 44q82 0 134.5 -42t52.5 -111.5t-55.5 -115.5t-137.5 -46q-84 0 -136 44t-52 113.5z" />
<glyph unicode="&#xcc;" horiz-adv-x="784" d="M31 0v6h135v1421h-135v7h723v-7h-133v-1421h133v-6h-723zM113 1708q0 45 28.5 72.5t77.5 27.5q41 0 72 -14q41 -18 152.5 -117.5t209.5 -134.5l-2 -6q-86 25 -241.5 36t-202.5 23q-94 25 -94 113z" />
<glyph unicode="&#xcd;" horiz-adv-x="784" d="M31 0v6h135v1421h-135v7h723v-7h-133v-1421h133v-6h-723zM119 1542q98 35 209.5 134.5t152.5 117.5q31 14 72 14q49 0 77.5 -27.5t28.5 -72.5q0 -88 -94 -113q-47 -12 -202.5 -23t-241.5 -36z" />
<glyph unicode="&#xce;" horiz-adv-x="784" d="M31 0v6h135v1421h-135v7h723v-7h-133v-1421h133v-6h-723zM86 1536v8q45 16 85 55t84 94.5t71 80.5q25 25 62 26h2q37 0 65 -26q20 -20 65 -77t87 -95.5t87 -57.5v-8l-305 100z" />
<glyph unicode="&#xcf;" horiz-adv-x="784" d="M-29 1693.5q0 69.5 55.5 113.5t139.5 44q82 0 134 -42t52 -111.5t-55 -115.5t-137 -46q-84 0 -136.5 44t-52.5 113.5zM31 0v6h135v1421h-135v7h723v-7h-133v-1421h133v-6h-723zM442 1693.5q0 69.5 55.5 113.5t139.5 44q82 0 134 -42t52 -111.5t-55 -115.5t-137 -46 q-84 0 -136.5 44t-52.5 113.5z" />
<glyph unicode="&#xd0;" horiz-adv-x="1658" d="M31 0v6h133v703h-113v6h113v712h-133v7h741q381 0 603 -196t222 -513q0 -315 -236.5 -520t-588.5 -205h-147h-594zM602 6h150q199 0 284.5 179.5t85.5 527.5q0 336 -90 525t-280 189h-150v-712h293v-6h-293v-703z" />
<glyph unicode="&#xd1;" horiz-adv-x="1501" d="M31 0v6q158 0 157 258v1163h-133v7h656l604 -1405v1140q0 129 -46 193.5t-112 64.5h-10v7h334v-7q-158 0 -158 -258v-1169h-471l-655 1405v-1141q0 -129 46 -193.5t111 -64.5h11v-6h-334zM440 1563q45 206 224 206h2q63 0 155 -53t154 -53q90 0 119 80h4 q-20 -94 -78.5 -150.5t-147.5 -56.5q-68 0 -168 53t-147 53q-92 0 -113 -79h-4z" />
<glyph unicode="&#xd2;" horiz-adv-x="1730" d="M92 709q0 322 215 533.5t559 211.5q373 0 572.5 -200.5t199.5 -528.5q0 -324 -214 -536t-558 -212q-373 0 -573.5 202t-200.5 530zM565 721q0 -135 6.5 -233.5t24.5 -199t50 -163t87 -101t133 -38.5q70 0 120 22.5t82 73.5t51.5 107.5t28.5 149.5t12 172t3 202 q0 135 -5 232t-23.5 197.5t-50 163t-86 101.5t-132.5 39q-68 0 -119 -23.5t-82.5 -74t-52 -107.5t-31 -148.5t-13.5 -172t-3 -199.5zM584 1708q0 45 28.5 72.5t77.5 27.5q41 0 72 -14q41 -18 152.5 -117.5t209.5 -134.5l-2 -6q-86 25 -241.5 36t-202.5 23q-94 25 -94 113z " />
<glyph unicode="&#xd3;" horiz-adv-x="1730" d="M92 709q0 322 215 533.5t559 211.5q373 0 572.5 -200.5t199.5 -528.5q0 -324 -214 -536t-558 -212q-373 0 -573.5 202t-200.5 530zM565 721q0 -135 6.5 -233.5t24.5 -199t50 -163t87 -101t133 -38.5q70 0 120 22.5t82 73.5t51.5 107.5t28.5 149.5t12 172t3 202 q0 135 -5 232t-23.5 197.5t-50 163t-86 101.5t-132.5 39q-68 0 -119 -23.5t-82.5 -74t-52 -107.5t-31 -148.5t-13.5 -172t-3 -199.5zM612 1542q98 35 210 134.5t153 117.5q31 14 72 14q49 0 77.5 -27.5t28.5 -72.5q0 -88 -94 -113q-47 -12 -203 -23t-242 -36z" />
<glyph unicode="&#xd4;" horiz-adv-x="1730" d="M92 709q0 322 215 533.5t559 211.5q373 0 572.5 -200.5t199.5 -528.5q0 -324 -214 -536t-558 -212q-373 0 -573.5 202t-200.5 530zM549 1536v8q45 16 85 55t84 94.5t70 80.5q25 25 63 26h1q38 0 66 -26q20 -20 65 -77t87 -95.5t87 -57.5v-8l-305 100zM565 721 q0 -135 6.5 -233.5t24.5 -199t50 -163t87 -101t133 -38.5q70 0 120 22.5t82 73.5t51.5 107.5t28.5 149.5t12 172t3 202q0 135 -5 232t-23.5 197.5t-50 163t-86 101.5t-132.5 39q-68 0 -119 -23.5t-82.5 -74t-52 -107.5t-31 -148.5t-13.5 -172t-3 -199.5z" />
<glyph unicode="&#xd5;" horiz-adv-x="1730" d="M92 709q0 322 215 533.5t559 211.5q373 0 572.5 -200.5t199.5 -528.5q0 -324 -214 -536t-558 -212q-373 0 -573.5 202t-200.5 530zM555 1563q45 206 223 206h2q63 0 155.5 -53t154.5 -53q89 0 118 80h4q-20 -94 -78.5 -150.5t-146.5 -56.5q-68 0 -168 53t-147 53 q-92 0 -113 -79h-4zM565 721q0 -135 6.5 -233.5t24.5 -199t50 -163t87 -101t133 -38.5q70 0 120 22.5t82 73.5t51.5 107.5t28.5 149.5t12 172t3 202q0 135 -5 232t-23.5 197.5t-50 163t-86 101.5t-132.5 39q-68 0 -119 -23.5t-82.5 -74t-52 -107.5t-31 -148.5t-13.5 -172 t-3 -199.5z" />
<glyph unicode="&#xd6;" horiz-adv-x="1730" d="M92 709q0 322 215 533.5t559 211.5q373 0 572.5 -200.5t199.5 -528.5q0 -324 -214 -536t-558 -212q-373 0 -573.5 202t-200.5 530zM449 1693.5q0 69.5 55 113.5t139 44q82 0 134 -42t52 -111.5t-55 -115.5t-137 -46q-84 0 -136 44t-52 113.5zM565 721q0 -135 6.5 -233.5 t24.5 -199t50 -163t87 -101t133 -38.5q70 0 120 22.5t82 73.5t51.5 107.5t28.5 149.5t12 172t3 202q0 135 -5 232t-23.5 197.5t-50 163t-86 101.5t-132.5 39q-68 0 -119 -23.5t-82.5 -74t-52 -107.5t-31 -148.5t-13.5 -172t-3 -199.5zM920 1693.5q0 69.5 55 113.5t139 44 q82 0 134 -42t52 -111.5t-55 -115.5t-137 -46q-84 0 -136 44t-52 113.5z" />
<glyph unicode="&#xd7;" horiz-adv-x="1064" d="M213 221l303 318q-45 43 -132 137l-171 180l2 2l317 -303l318 303l2 -2l-303 -317l303 -318l-2 -2l-318 303l-317 -303z" />
<glyph unicode="&#xd8;" horiz-adv-x="1730" d="M92 709q0 322 215 533.5t559 211.5q219 0 383 -76q8 12 37 62l45 76h8l-79 -140q186 -88 282 -258t96 -393q0 -324 -214 -536t-558 -212q-207 0 -368 68q-51 -80 -90 -151h-9q16 31 48 86l40 69q-193 84 -294 257t-101 403zM565 721q0 -317 37 -469l256 453l270 466 q-61 274 -262 275q-68 0 -119 -23.5t-82.5 -74t-52 -107.5t-31 -148.5t-13.5 -172t-3 -199.5zM606 233q67 -247 260 -247q70 0 120 22.5t82 73.5t51.5 107.5t28.5 149.5t12 172t3 202q0 287 -30 440l-252 -448z" />
<glyph unicode="&#xd9;" horiz-adv-x="1499" d="M20 1427v7h721v-7h-133v-917q0 -168 96.5 -267.5t252 -99.5t253 98.5t97.5 276.5v656q0 129 -49.5 191t-116.5 62h-13v7h351v-7h-13q-66 0 -108.5 -62t-42.5 -191v-656q0 -236 -166 -386t-414 -150q-254 0 -416.5 146t-162.5 372v927h-136zM500 1708q0 45 28.5 72.5 t77.5 27.5q41 0 72 -14q41 -18 152.5 -117.5t209.5 -134.5l-2 -6q-86 25 -241.5 36t-202.5 23q-94 25 -94 113z" />
<glyph unicode="&#xda;" horiz-adv-x="1499" d="M20 1427v7h721v-7h-133v-917q0 -168 96.5 -267.5t252 -99.5t253 98.5t97.5 276.5v656q0 129 -49.5 191t-116.5 62h-13v7h351v-7h-13q-66 0 -108.5 -62t-42.5 -191v-656q0 -236 -166 -386t-414 -150q-254 0 -416.5 146t-162.5 372v927h-136zM539 1542q98 35 209.5 134.5 t152.5 117.5q31 14 72 14q49 0 77.5 -27.5t28.5 -72.5q0 -88 -94 -113q-47 -12 -202.5 -23t-241.5 -36z" />
<glyph unicode="&#xdb;" horiz-adv-x="1499" d="M20 1427v7h721v-7h-133v-917q0 -168 96.5 -267.5t252 -99.5t253 98.5t97.5 276.5v656q0 129 -49.5 191t-116.5 62h-13v7h351v-7h-13q-66 0 -108.5 -62t-42.5 -191v-656q0 -236 -166 -386t-414 -150q-254 0 -416.5 146t-162.5 372v927h-136zM463 1536v8q45 16 85 55 t84 94.5t70 80.5q25 25 63 26h1q38 0 65 -26q20 -20 65.5 -77t87.5 -95.5t87 -57.5v-8l-305 100z" />
<glyph unicode="&#xdc;" horiz-adv-x="1499" d="M20 1427v7h721v-7h-133v-917q0 -168 96.5 -267.5t252 -99.5t253 98.5t97.5 276.5v656q0 129 -49.5 191t-116.5 62h-13v7h351v-7h-13q-66 0 -108.5 -62t-42.5 -191v-656q0 -236 -166 -386t-414 -150q-254 0 -416.5 146t-162.5 372v927h-136zM346 1693.5q0 69.5 55.5 113.5 t139.5 44q82 0 134 -42t52 -111.5t-55.5 -115.5t-136.5 -46q-84 0 -136.5 44t-52.5 113.5zM817 1693.5q0 69.5 55.5 113.5t139.5 44q82 0 134 -42t52 -111.5t-55.5 -115.5t-136.5 -46q-84 0 -136.5 44t-52.5 113.5z" />
<glyph unicode="&#xdd;" horiz-adv-x="1630" d="M10 1427v7h762v-7h-135l387 -686l274 459q31 51 38 100q1 10 1 20q0 37 -23 68q-28 37 -95 39h-17v7h418v-7h-14q-164 0 -301 -231l-277 -463v-727h135v-6h-721v6h133v658l-450 763h-115zM614 1542q98 35 210 134.5t153 117.5q31 14 72 14q49 0 77.5 -27.5t28.5 -72.5 q0 -88 -94 -113q-47 -12 -203 -23t-242 -36z" />
<glyph unicode="&#xde;" horiz-adv-x="1452" d="M31 0v6h133v1421h-133v7h698v-7h-133v-282h205q590 0 590 -371q0 -186 -168 -282.5t-451 -96.5h-176v-389h145v-6h-710zM596 401h119q241 0 241 364q0 372 -233 372h-127v-736z" />
<glyph unicode="&#xdf;" horiz-adv-x="1294" d="M20 0v6h107v1006q0 209 132 338t364 129q229 0 361 -82t132 -207q0 -66 -27.5 -113t-67.5 -73.5t-80 -50t-67.5 -55.5t-27.5 -75q0 -49 42 -86t101.5 -65.5t119.5 -62.5t102 -98.5t42 -154.5q0 -166 -143 -269t-326 -103q-106 0 -168.5 60t-62.5 149q0 66 42 108.5 t105 42.5q61 0 96 -35t35 -92q0 -53 -36.5 -87t-87.5 -34q-41 0 -73 16.5t-34 16.5q-8 0 -8 -10q0 -49 54 -90t138 -41q68 0 111 56t43 151q0 78 -35 142t-84 110l-97 88q-48 43 -83 96t-35 112.5t24.5 114.5t53.5 94t53.5 117t24.5 178q0 223 -137 223q-139 0 -140 -229 v-1241h-463z" />
<glyph unicode="&#xe0;" horiz-adv-x="1198" d="M72 227q0 90 46 146.5t114 77.5l149 48q80 27 148.5 55t114.5 97.5t46 176t-60.5 163t-160.5 56.5q-109 0 -190.5 -47.5t-81.5 -90.5q0 -14 16 -14q4 0 17.5 6t36 12.5t44.5 6.5q66 0 114 -42t48 -112q0 -66 -48 -110t-124 -44q-70 0 -118 49t-48 121q0 127 107.5 204 t331 77t339 -95.5t115.5 -277.5v-463q0 -116 81 -116h1q37 0 59.5 31.5t22.5 80.5h6q-4 -106 -64.5 -176t-183.5 -70q-215 0 -270 224q-2 -8 -7 -23.5t-27.5 -54.5t-55.5 -68.5t-94.5 -54.5t-139.5 -25q-125 0 -204.5 68t-79.5 184zM346 1403q0 45 28.5 72.5t78.5 27.5 q41 0 71 -14q41 -18 153 -117.5t210 -134.5l-2 -6q-86 25 -242 36t-203 23q-94 25 -94 113zM426 262q0 -90 36 -136t87 -46q55 0 89 46t34 130v420q-25 -41 -73 -88l-83 -81q-35 -34 -62.5 -97.5t-27.5 -147.5z" />
<glyph unicode="&#xe1;" horiz-adv-x="1198" d="M72 227q0 90 46 146.5t114 77.5l149 48q80 27 148.5 55t114.5 97.5t46 176t-60.5 163t-160.5 56.5q-109 0 -190.5 -47.5t-81.5 -90.5q0 -14 16 -14q4 0 17.5 6t36 12.5t44.5 6.5q66 0 114 -42t48 -112q0 -66 -48 -110t-124 -44q-70 0 -118 49t-48 121q0 127 107.5 204 t331 77t339 -95.5t115.5 -277.5v-463q0 -116 81 -116h1q37 0 59.5 31.5t22.5 80.5h6q-4 -106 -64.5 -176t-183.5 -70q-215 0 -270 224q-2 -8 -7 -23.5t-27.5 -54.5t-55.5 -68.5t-94.5 -54.5t-139.5 -25q-125 0 -204.5 68t-79.5 184zM371 1237q98 35 209.5 134t152.5 118 q31 14 72 14q49 0 77.5 -27.5t28.5 -72.5q0 -88 -94 -113q-47 -12 -202.5 -23t-241.5 -36zM426 262q0 -90 36 -136t87 -46q55 0 89 46t34 130v420q-25 -41 -73 -88l-83 -81q-35 -34 -62.5 -97.5t-27.5 -147.5z" />
<glyph unicode="&#xe2;" horiz-adv-x="1198" d="M72 227q0 90 46 146.5t114 77.5l149 48q80 27 148.5 55t114.5 97.5t46 176t-60.5 163t-160.5 56.5q-109 0 -190.5 -47.5t-81.5 -90.5q0 -14 16 -14q4 0 17.5 6t36 12.5t44.5 6.5q66 0 114 -42t48 -112q0 -66 -48 -110t-124 -44q-70 0 -118 49t-48 121q0 127 107.5 204 t331 77t339 -95.5t115.5 -277.5v-463q0 -116 81 -116h1q37 0 59.5 31.5t22.5 80.5h6q-4 -106 -64.5 -176t-183.5 -70q-215 0 -270 224q-2 -8 -7 -23.5t-27.5 -54.5t-55.5 -68.5t-94.5 -54.5t-139.5 -25q-125 0 -204.5 68t-79.5 184zM311 1260v8q45 16 85 55t84 94.5t71 79.5 q25 25 62 26h3q36 0 64 -26q20 -20 65.5 -76.5t87 -95.5t87.5 -57v-8l-306 100zM426 262q0 -90 36 -136t87 -46q55 0 89 46t34 130v420q-25 -41 -73 -88l-83 -81q-35 -34 -62.5 -97.5t-27.5 -147.5z" />
<glyph unicode="&#xe3;" horiz-adv-x="1198" d="M72 227q0 90 46 146.5t114 77.5l149 48q80 27 148.5 55t114.5 97.5t46 176t-60.5 163t-160.5 56.5q-109 0 -190.5 -47.5t-81.5 -90.5q0 -14 16 -14q4 0 17.5 6t36 12.5t44.5 6.5q66 0 114 -42t48 -112q0 -66 -48 -110t-124 -44q-70 0 -118 49t-48 121q0 127 107.5 204 t331 77t339 -95.5t115.5 -277.5v-463q0 -116 81 -116h1q37 0 59.5 31.5t22.5 80.5h6q-4 -106 -64.5 -176t-183.5 -70q-215 0 -270 224q-2 -8 -7 -23.5t-27.5 -54.5t-55.5 -68.5t-94.5 -54.5t-139.5 -25q-125 0 -204.5 68t-79.5 184zM297 1300q45 207 225 207q63 0 155.5 -53 t153.5 -53q90 0 119 80h4q-20 -94 -78.5 -150.5t-146.5 -56.5q-68 0 -168 53t-147 53q-92 0 -113 -80h-4zM426 262q0 -90 36 -136t87 -46q55 0 89 46t34 130v420q-25 -41 -73 -88l-83 -81q-35 -34 -62.5 -97.5t-27.5 -147.5z" />
<glyph unicode="&#xe4;" horiz-adv-x="1198" d="M72 227q0 90 46 146.5t114 77.5l149 48q80 27 148.5 55t114.5 97.5t46 176t-60.5 163t-160.5 56.5q-109 0 -190.5 -47.5t-81.5 -90.5q0 -14 16 -14q4 0 17.5 6t36 12.5t44.5 6.5q66 0 114 -42t48 -112q0 -66 -48 -110t-124 -44q-70 0 -118 49t-48 121q0 127 107.5 204 t331 77t339 -95.5t115.5 -277.5v-463q0 -116 81 -116h1q37 0 59.5 31.5t22.5 80.5h6q-4 -106 -64.5 -176t-183.5 -70q-215 0 -270 224q-2 -8 -7 -23.5t-27.5 -54.5t-55.5 -68.5t-94.5 -54.5t-139.5 -25q-125 0 -204.5 68t-79.5 184zM176 1337.5q0 69.5 55.5 113.5t139.5 44 q82 0 134 -42t52 -111.5t-55.5 -115.5t-136.5 -46q-84 0 -136.5 44t-52.5 113.5zM426 262q0 -90 36 -136t87 -46q55 0 89 46t34 130v420q-25 -41 -73 -88l-83 -81q-35 -34 -62.5 -97.5t-27.5 -147.5zM647 1337.5q0 69.5 55.5 113.5t139.5 44q82 0 134 -42t52 -111.5 t-55 -115.5t-137 -46q-84 0 -136.5 44t-52.5 113.5z" />
<glyph unicode="&#xe5;" horiz-adv-x="1198" d="M72 227q0 90 46 146.5t114 77.5l149 48q80 27 148.5 55t114.5 97.5t46 176t-60.5 163t-160.5 56.5q-109 0 -190.5 -47.5t-81.5 -90.5q0 -14 16 -14q4 0 17.5 6t36 12.5t44.5 6.5q66 0 114 -42t48 -112q0 -66 -48 -110t-124 -44q-70 0 -118 49t-48 121q0 127 107.5 204 t331 77t339 -95.5t115.5 -277.5v-463q0 -116 81 -116h1q37 0 59.5 31.5t22.5 80.5h6q-4 -106 -64.5 -176t-183.5 -70q-215 0 -270 224q-2 -8 -7 -23.5t-27.5 -54.5t-55.5 -68.5t-94.5 -54.5t-139.5 -25q-125 0 -204.5 68t-79.5 184zM317 1397q0 88 81 140t202 52 q123 0 200 -50t77 -138t-79 -141.5t-200 -53.5q-125 0 -203 51.5t-78 139.5zM426 262q0 -90 36 -136t87 -46q55 0 89 46t34 130v420q-25 -41 -73 -88l-83 -81q-35 -34 -62.5 -97.5t-27.5 -147.5zM506 1399q0 -187 92 -187q94 0 94 185q0 186 -92 186q-94 0 -94 -184z" />
<glyph unicode="&#xe6;" horiz-adv-x="1699" d="M72 227q0 90 46 146.5t115 78.5l151 48q81 26 150.5 54t115.5 97.5t46 176t-63.5 163t-163.5 56.5q-109 0 -190.5 -47.5t-81.5 -90.5q0 -14 16 -14q4 0 17.5 6t36 12.5t44.5 6.5q66 0 114 -42t48 -112q0 -66 -48 -110t-124 -44q-70 0 -118 49.5t-48 120.5 q0 127 107.5 204t330.5 77q193 0 304 -88q131 90 309 90q221 0 326.5 -82t105.5 -211q0 -109 -56.5 -168t-137.5 -79l-161 -40q-81 -20 -137.5 -77.5t-56.5 -161.5q0 -106 65.5 -173t174 -67t183.5 60.5t75 115.5q0 12 -13 13l-34 -21q-37 -20 -74 -20q-70 0 -105.5 42 t-35.5 97q0 61 43 108.5t108 47.5q72 0 117 -44.5t45 -119.5q0 -131 -111.5 -218t-312.5 -87q-346 0 -471 247l-11 -27q-7 -18 -36 -61t-67 -75.5t-105.5 -60.5t-147.5 -28q-125 0 -204.5 68t-79.5 184zM426 262q0 -90 36 -136t87 -46q66 0 111 50t45 126q0 27 -21.5 104.5 t-21.5 151.5q0 96 20 172q-25 -49 -74 -98t-86 -82t-66.5 -96.5t-29.5 -145.5zM1036 557q0 -162 21 -264q10 53 37.5 91t56.5 65.5t57.5 63.5t47 105.5t18.5 172.5q0 266 -96 266q-141 0 -142 -500z" />
<glyph unicode="&#xe7;" horiz-adv-x="1050" d="M82 516q0 246 140 397.5t378 151.5q190 0 289.5 -86t99.5 -213q0 -88 -54 -141.5t-136 -53.5q-74 0 -119 45.5t-45 112.5q0 78 45 122t111 44q29 0 53 -6t38.5 -12.5t16.5 -6.5q16 0 16 15q0 51 -53 103t-162 52q-247 0 -247 -508q0 -229 63.5 -342.5t210.5 -113.5 q102 0 169 61.5t83 171.5h8q-20 -147 -128.5 -238t-293.5 -91h-30l-162 -136q51 41 196 41q287 0 287 -143q0 -76 -93 -131t-267 -55q-123 0 -171.5 39.5t-48.5 91.5q0 29 20.5 51t51.5 22q29 0 47.5 -17t18.5 -44t-15.5 -45.5t-44.5 -18.5q-12 0 -24.5 6.5t-14.5 6.5 q-10 0 -10 -10q0 -25 33 -46.5t90 -21.5q66 0 106.5 40t40.5 118q0 133 -122 133l-88 -27h-11l172 148q-213 12 -328.5 152t-115.5 382z" />
<glyph unicode="&#xe8;" horiz-adv-x="1130" d="M82 512q0 -248 144.5 -390t398.5 -142q201 0 312.5 87t111.5 218q0 76 -45.5 120t-116.5 44q-66 0 -109 -47.5t-43 -108.5q0 -55 36 -97t106 -42q27 0 51 10t38.5 20.5t18.5 10.5q12 0 12 -13q0 -55 -74.5 -115.5t-183 -60.5t-174 66.5t-65.5 173.5q0 104 56 161.5 t137 76.5l162 40q81 21 137.5 80.5t56.5 167.5q0 129 -105.5 211t-327.5 82q-240 0 -387 -153.5t-147 -399.5zM317 1403q0 45 29 72.5t78 27.5q41 0 72 -14q41 -18 152.5 -117.5t209.5 -134.5l-2 -6q-86 25 -241.5 36t-202.5 23q-94 25 -95 113zM467 557q0 500 141 500 q96 0 97 -266q0 -102 -18.5 -172t-47.5 -106t-57.5 -63.5t-56 -65.5t-38.5 -91q-20 117 -20 264z" />
<glyph unicode="&#xe9;" horiz-adv-x="1130" d="M82 512q0 -248 144.5 -390t398.5 -142q201 0 312.5 87t111.5 218q0 76 -45.5 120t-116.5 44q-66 0 -109 -47.5t-43 -108.5q0 -55 36 -97t106 -42q27 0 51 10t38.5 20.5t18.5 10.5q12 0 12 -13q0 -55 -74.5 -115.5t-183 -60.5t-174 66.5t-65.5 173.5q0 104 56 161.5 t137 76.5l162 40q81 21 137.5 80.5t56.5 167.5q0 129 -105.5 211t-327.5 82q-240 0 -387 -153.5t-147 -399.5zM352 1237q98 35 210 134t153 118q31 14 71 14q49 0 78 -27.5t29 -72.5q0 -88 -94 -113q-47 -12 -203 -23t-242 -36zM467 557q0 500 141 500q96 0 97 -266 q0 -102 -18.5 -172t-47.5 -106t-57.5 -63.5t-56 -65.5t-38.5 -91q-20 117 -20 264z" />
<glyph unicode="&#xea;" horiz-adv-x="1130" d="M82 512q0 -248 144.5 -390t398.5 -142q201 0 312.5 87t111.5 218q0 76 -45.5 120t-116.5 44q-66 0 -109 -47.5t-43 -108.5q0 -55 36 -97t106 -42q27 0 51 10t38.5 20.5t18.5 10.5q12 0 12 -13q0 -55 -74.5 -115.5t-183 -60.5t-174 66.5t-65.5 173.5q0 104 56 161.5 t137 76.5l162 40q81 21 137.5 80.5t56.5 167.5q0 129 -105.5 211t-327.5 82q-240 0 -387 -153.5t-147 -399.5zM276 1260v8q45 16 85 55t84 94.5t71 79.5q25 25 62 26h3q36 0 64 -26q20 -20 65.5 -76.5t87.5 -95.5t87 -57v-8l-305 100zM467 557q0 500 141 500q96 0 97 -266 q0 -102 -18.5 -172t-47.5 -106t-57.5 -63.5t-56 -65.5t-38.5 -91q-20 117 -20 264z" />
<glyph unicode="&#xeb;" horiz-adv-x="1130" d="M82 512q0 -248 144.5 -390t398.5 -142q201 0 312.5 87t111.5 218q0 76 -45.5 120t-116.5 44q-66 0 -109 -47.5t-43 -108.5q0 -55 36 -97t106 -42q27 0 51 10t38.5 20.5t18.5 10.5q12 0 12 -13q0 -55 -74.5 -115.5t-183 -60.5t-174 66.5t-65.5 173.5q0 104 56 161.5 t137 76.5l162 40q81 21 137.5 80.5t56.5 167.5q0 129 -105.5 211t-327.5 82q-240 0 -387 -153.5t-147 -399.5zM164 1337.5q0 69.5 55 113.5t139 44q82 0 134.5 -42t52.5 -111.5t-55.5 -115.5t-137.5 -46q-84 0 -136 44t-52 113.5zM467 557q0 500 141 500q96 0 97 -266 q0 -102 -18.5 -172t-47.5 -106t-57.5 -63.5t-56 -65.5t-38.5 -91q-20 117 -20 264zM635 1337.5q0 69.5 55 113.5t139 44q82 0 134.5 -42t52.5 -111.5t-55.5 -115.5t-137.5 -46q-84 0 -136 44t-52 113.5z" />
<glyph unicode="&#xec;" horiz-adv-x="641" d="M8 1403q0 45 29 72.5t78 27.5q41 0 71 -14q41 -18 153 -117.5t210 -134.5l-2 -6q-86 25 -241.5 36t-203.5 23q-94 25 -94 113zM20 0v6h121v1026h-121v6h484v-1032h117v-6h-601z" />
<glyph unicode="&#xed;" horiz-adv-x="641" d="M20 0v6h121v1026h-121v6h484v-1032h117v-6h-601zM59 1237q98 35 210 134t153 118q31 14 72 14q49 0 77.5 -27.5t28.5 -72.5q0 -88 -94 -113q-47 -12 -203 -23t-242 -36z" />
<glyph unicode="&#xee;" horiz-adv-x="641" d="M18 1260v8q45 16 85 55t84 94.5t71 79.5q25 25 63 26h2q36 0 64 -26q20 -20 65.5 -76.5t87.5 -95.5t87 -57v-8l-305 100zM20 0v6h121v1026h-121v6h484v-1032h117v-6h-601z" />
<glyph unicode="&#xef;" horiz-adv-x="641" d="M-100 1337.5q0 69.5 55 113.5t139 44q82 0 134.5 -42t52.5 -111.5t-55.5 -115.5t-137.5 -46q-84 0 -136 44t-52 113.5zM20 0v6h121v1026h-121v6h484v-1032h117v-6h-601zM371 1337.5q0 69.5 55 113.5t139 44q82 0 134.5 -42t52.5 -111.5t-55.5 -115.5t-137.5 -46 q-84 0 -136 44t-52 113.5z" />
<glyph unicode="&#xf0;" horiz-adv-x="1253" d="M82 489q0 242 144.5 388.5t379.5 146.5q90 0 135 -47q-20 100 -108 223l-303 -123v10l297 121q-160 190 -322 228v6q289 -47 477 -168l301 127v-8l-290 -123q178 -125 278 -309.5t100 -397.5q0 -279 -151.5 -432.5t-405.5 -153.5q-252 0 -392 138.5t-140 373.5zM473 500 q0 -281 33 -396.5t123 -115.5q80 0 116.5 121.5t36.5 416.5q0 254 -34.5 370t-118.5 116q-94 0 -125 -114t-31 -398z" />
<glyph unicode="&#xf1;" horiz-adv-x="1288" d="M31 0v6h116v1026h-116v6h481v-186q2 8 8 22.5t32 50.5t59.5 62.5t95 49t137.5 22.5q147 0 222 -96.5t75 -274.5v-452q0 -68 16.5 -96.5t59.5 -28.5q78 0 81 112h9q-4 -104 -71 -175t-192 -71q-111 0 -189.5 76t-78.5 215v566q0 141 -119 141q-63 0 -104 -60.5t-41 -166.5 v-742h94v-6h-575zM315 1300q45 207 226 207q63 0 155 -53t154 -53q92 0 119 80h4q-20 -94 -78.5 -150.5t-146.5 -56.5q-68 0 -168.5 53t-147.5 53q-92 0 -113 -80h-4z" />
<glyph unicode="&#xf2;" horiz-adv-x="1251" d="M82 514q0 242 158.5 394.5t392.5 152.5q240 0 388 -145.5t148 -387t-156.5 -395t-389.5 -153.5q-242 0 -391.5 146t-149.5 388zM367 1403q0 45 28.5 72.5t77.5 27.5q41 0 72 -14q41 -18 152.5 -117.5t209.5 -134.5l-2 -6q-86 25 -241.5 36t-202.5 23q-94 25 -94 113z M459 526.5q0 -270.5 38 -405.5t126 -135q92 0 131 130t39 400q0 272 -37 405.5t-123 133.5q-96 0 -135 -129t-39 -399.5z" />
<glyph unicode="&#xf3;" horiz-adv-x="1251" d="M82 514q0 242 158.5 394.5t392.5 152.5q240 0 388 -145.5t148 -387t-156.5 -395t-389.5 -153.5q-242 0 -391.5 146t-149.5 388zM379 1237q98 35 209.5 134t152.5 118q31 14 72 14q49 0 78 -27.5t29 -72.5q0 -88 -95 -113q-47 -12 -202.5 -23t-241.5 -36zM459 526.5 q0 -270.5 38 -405.5t126 -135q92 0 131 130t39 400q0 272 -37 405.5t-123 133.5q-96 0 -135 -129t-39 -399.5z" />
<glyph unicode="&#xf4;" horiz-adv-x="1251" d="M82 514q0 242 158.5 394.5t392.5 152.5q240 0 388 -145.5t148 -387t-156.5 -395t-389.5 -153.5q-242 0 -391.5 146t-149.5 388zM328 1260v8q45 16 85 55t84 94.5t70 79.5q25 25 63 26h3q36 0 63 -26q20 -20 65.5 -76.5t87.5 -95.5t87 -57v-8l-305 100zM459 526.5 q0 -270.5 38 -405.5t126 -135q92 0 131 130t39 400q0 272 -37 405.5t-123 133.5q-96 0 -135 -129t-39 -399.5z" />
<glyph unicode="&#xf5;" horiz-adv-x="1251" d="M82 514q0 242 158.5 394.5t392.5 152.5q240 0 388 -145.5t148 -387t-156.5 -395t-389.5 -153.5q-242 0 -391.5 146t-149.5 388zM315 1300q45 207 226 207q63 0 155 -53t154 -53q92 0 119 80h4q-20 -94 -78.5 -150.5t-146.5 -56.5q-68 0 -168.5 53t-147.5 53 q-92 0 -113 -80h-4zM459 526.5q0 -270.5 38 -405.5t126 -135q92 0 131 130t39 400q0 272 -37 405.5t-123 133.5q-96 0 -135 -129t-39 -399.5z" />
<glyph unicode="&#xf6;" horiz-adv-x="1251" d="M82 514q0 242 158.5 394.5t392.5 152.5q240 0 388 -145.5t148 -387t-156.5 -395t-389.5 -153.5q-242 0 -391.5 146t-149.5 388zM211 1337.5q0 69.5 55.5 113.5t139.5 44q82 0 134 -42t52 -111.5t-55.5 -115.5t-137.5 -46q-84 0 -136 44t-52 113.5zM459 526.5 q0 -270.5 38 -405.5t126 -135q92 0 131 130t39 400q0 272 -37 405.5t-123 133.5q-96 0 -135 -129t-39 -399.5zM682 1337.5q0 69.5 55.5 113.5t139.5 44q82 0 134 -42t52 -111.5t-55.5 -115.5t-137.5 -46q-84 0 -136 44t-52 113.5z" />
<glyph unicode="&#xf7;" horiz-adv-x="1064" d="M102 535v6q133 0 243 5t167 5q49 0 160 -5t250 -5v-6q-139 0 -250 -5.5t-160 -5.5q-57 0 -166.5 5.5t-243.5 5.5zM473 186q0 16 11.5 28.5t27.5 12.5t28.5 -12t12.5 -28.5t-12.5 -28t-28.5 -11.5q-39 0 -39 39zM473 887q0 16 11.5 28.5t27.5 12.5t28.5 -12.5t12.5 -29 t-12.5 -27.5t-28.5 -11q-39 0 -39 39z" />
<glyph unicode="&#xf8;" horiz-adv-x="1251" d="M82 514q0 242 158.5 394.5t392.5 152.5q141 0 258 -55l102 180h11q-80 -143 -103 -187q125 -63 196.5 -186t71.5 -285q0 -242 -156.5 -395t-389.5 -153q-139 0 -261 55l-92 -166h-10l94 170q-129 63 -200.5 186t-71.5 289zM459 526q0 -182 12 -272q100 190 147 272 l160 281q-35 248 -145 248q-96 0 -135 -129t-39 -400zM473 227q35 -241 150 -241q92 0 131 130t39 400q0 152 -13 262l-135 -252z" />
<glyph unicode="&#xf9;" horiz-adv-x="1288" d="M20 1032v6h484v-835q0 -137 110 -137q61 0 100.5 58t39.5 163v745h-95v6h459v-796q0 -70 16.5 -100.5t59.5 -30.5q37 0 60.5 31.5t25.5 80.5h8q-4 -104 -72.5 -175t-193.5 -71q-217 0 -260 213q-2 -8 -8 -22t-33 -51t-60.5 -64.5t-95 -50t-135.5 -22.5q-145 0 -219 93 t-74 269v690h-117zM340 1403q0 45 28.5 72.5t77.5 27.5q41 0 72 -14q41 -18 153 -117.5t210 -134.5l-2 -6q-86 25 -242 36t-203 23q-94 25 -94 113z" />
<glyph unicode="&#xfa;" horiz-adv-x="1288" d="M20 1032v6h484v-835q0 -137 110 -137q61 0 100.5 58t39.5 163v745h-95v6h459v-796q0 -70 16.5 -100.5t59.5 -30.5q37 0 60.5 31.5t25.5 80.5h8q-4 -104 -72.5 -175t-193.5 -71q-217 0 -260 213q-2 -8 -8 -22t-33 -51t-60.5 -64.5t-95 -50t-135.5 -22.5q-145 0 -219 93 t-74 269v690h-117zM385 1237q98 35 210 134t153 118q31 14 71 14q49 0 78 -27.5t29 -72.5q0 -88 -95 -113q-47 -12 -202.5 -23t-241.5 -36z" />
<glyph unicode="&#xfb;" horiz-adv-x="1288" d="M20 1032v6h484v-835q0 -137 110 -137q61 0 100.5 58t39.5 163v745h-95v6h459v-796q0 -70 16.5 -100.5t59.5 -30.5q37 0 60.5 31.5t25.5 80.5h8q-4 -104 -72.5 -175t-193.5 -71q-217 0 -260 213q-2 -8 -8 -22t-33 -51t-60.5 -64.5t-95 -50t-135.5 -22.5q-145 0 -219 93 t-74 269v690h-117zM336 1260v8q45 16 85 55t84 94.5t70 79.5q25 25 63 26h3q36 0 64 -26q20 -20 65 -76.5t87 -95.5t87 -57v-8l-305 100z" />
<glyph unicode="&#xfc;" horiz-adv-x="1288" d="M20 1032v6h484v-835q0 -137 110 -137q61 0 100.5 58t39.5 163v745h-95v6h459v-796q0 -70 16.5 -100.5t59.5 -30.5q37 0 60.5 31.5t25.5 80.5h8q-4 -104 -72.5 -175t-193.5 -71q-217 0 -260 213q-2 -8 -8 -22t-33 -51t-60.5 -64.5t-95 -50t-135.5 -22.5q-145 0 -219 93 t-74 269v690h-117zM203 1337.5q0 69.5 55 113.5t139 44q82 0 134.5 -42t52.5 -111.5t-55.5 -115.5t-137.5 -46q-84 0 -136 44t-52 113.5zM674 1337.5q0 69.5 55 113.5t139 44q82 0 134.5 -42t52.5 -111.5t-55.5 -115.5t-137.5 -46q-84 0 -136 44t-52 113.5z" />
<glyph unicode="&#xfd;" horiz-adv-x="1183" d="M31 1032v6h637v-6h-144l299 -667l100 86q42 38 89 91.5t71.5 110t24.5 113.5q0 39 -29 39q-4 0 -58 -27.5t-106 -29.5h-6q-64 0 -112 45q-49 47 -49 133q0 78 50 130t140 52q100 0 152.5 -64.5t52.5 -179.5q0 -111 -49.5 -210t-122 -168.5t-158.5 -139.5l-159 -125 q-72 -55 -121.5 -123.5t-49.5 -136.5q0 -39 29 -39q4 0 59.5 21.5t98.5 21.5q70 0 119 -42t49 -126q0 -76 -49.5 -123t-133.5 -47q-96 0 -152.5 59.5t-56.5 168.5q0 160 97 272l-422 905h-90zM385 1237q98 35 210 134t153 118q31 14 71 14q49 0 78 -27.5t29 -72.5 q0 -88 -95 -113q-47 -12 -202.5 -23t-241.5 -36z" />
<glyph unicode="&#xfe;" horiz-adv-x="1255" d="M10 -293h121v1720h-121v7h488v-580q2 8 7 22.5t26.5 52.5t51 65.5t86 51t124.5 23.5q178 0 279.5 -141.5t101.5 -384.5q0 -248 -106.5 -395.5t-285.5 -147.5q-94 0 -174 46t-110 130v-469h116v-6h-604v6zM498 741v-452q0 -113 37.5 -162t91.5 -49q92 0 132 112.5 t40 341.5q0 227 -40 331t-132 104q-55 0 -92 -54.5t-37 -171.5z" />
<glyph unicode="&#xff;" horiz-adv-x="1183" d="M31 1032v6h637v-6h-144l299 -667l100 86q42 38 89 91.5t71.5 110t24.5 113.5q0 39 -29 39q-4 0 -58 -27.5t-106 -29.5h-6q-64 0 -112 45q-49 47 -49 133q0 78 50 130t140 52q100 0 152.5 -64.5t52.5 -179.5q0 -111 -49.5 -210t-122 -168.5t-158.5 -139.5l-159 -125 q-72 -55 -121.5 -123.5t-49.5 -136.5q0 -39 29 -39q4 0 59.5 21.5t98.5 21.5q70 0 119 -42t49 -126q0 -76 -49.5 -123t-133.5 -47q-96 0 -152.5 59.5t-56.5 168.5q0 160 97 272l-422 905h-90zM199 1337.5q0 69.5 55 113.5t139 44q82 0 134.5 -42t52.5 -111.5t-55.5 -115.5 t-137.5 -46q-84 0 -136 44t-52 113.5zM670 1337.5q0 69.5 55 113.5t139 44q82 0 134.5 -42t52.5 -111.5t-55.5 -115.5t-137.5 -46q-84 0 -136 44t-52 113.5z" />
<glyph unicode="&#x152;" horiz-adv-x="2246" d="M92 709q0 322 214 533.5t558 211.5q59 0 141 -10t134 -10h1007v-392h-10q-31 193 -125 289t-270 96h-633q268 -90 394 -275t126 -435h31q129 0 195.5 62.5t89.5 189.5h8v-514h-8q-18 137 -84 196.5t-201 59.5h-31q-8 -242 -140 -426.5t-394 -278.5h669q182 0 269.5 84 t124.5 297h8v-387h-1028q-47 0 -140.5 -11.5t-132.5 -11.5q-373 0 -572.5 202t-199.5 530zM565 721q0 -172 10.5 -289t40 -227.5t91 -165.5t157.5 -55q70 0 120 23.5t83 74.5t52.5 107.5t28.5 149.5t12 172t3 202q0 135 -5 232t-23.5 197.5t-50 163t-87 101.5t-133.5 39 q-68 0 -119 -23.5t-82.5 -74t-52 -107.5t-30 -148.5t-12.5 -171t-3 -200.5z" />
<glyph unicode="&#x153;" horiz-adv-x="1826" d="M82 514q0 242 158.5 394.5t392.5 152.5q209 0 346 -125q133 129 334 129q221 0 326.5 -82t105.5 -211q0 -109 -56.5 -168t-137.5 -79l-161 -40q-81 -20 -137.5 -77.5t-56.5 -161.5q0 -106 65.5 -173t174 -67t183.5 60.5t75 115.5q0 12 -13 13l-34 -21q-37 -20 -74 -20 q-70 0 -105.5 42t-35.5 97q0 61 43 108.5t108 47.5q72 0 117 -44.5t45 -119.5q0 -131 -111.5 -218t-312.5 -87q-233 0 -356 126q-138 -126 -339 -126h-3q-242 0 -391.5 146t-149.5 388zM459 526.5q0 -270.5 38 -405.5t126 -135q92 0 131 130t39 400q0 272 -37 405.5 t-123 133.5q-96 0 -135 -129t-39 -399.5zM1163 557q0 -162 21 -264q10 53 37.5 91t56.5 65.5t57.5 63.5t47 105.5t18.5 172.5q0 266 -96 266q-141 0 -142 -500z" />
<glyph unicode="&#x178;" horiz-adv-x="1630" d="M10 1427v7h762v-7h-135l387 -686l274 459q31 51 38 100q1 10 1 20q0 37 -23 68q-28 37 -95 39h-17v7h418v-7h-14q-164 0 -301 -231l-277 -463v-727h135v-6h-721v6h133v658l-450 763h-115zM393 1693.5q0 69.5 55.5 113.5t139.5 44q82 0 134 -42t52 -111.5t-55 -115.5 t-137 -46q-84 0 -136.5 44t-52.5 113.5zM864 1693.5q0 69.5 55.5 113.5t139.5 44q82 0 134 -42t52 -111.5t-55 -115.5t-137 -46q-84 0 -136.5 44t-52.5 113.5z" />
<glyph unicode="&#x2c6;" horiz-adv-x="1024" d="M209 1260v8q45 16 85 55t84 94.5t71 79.5q25 25 63 26h2q36 0 64 -26q20 -20 65 -76.5t87 -95.5t87 -57v-8l-305 100z" />
<glyph unicode="&#x2dc;" horiz-adv-x="1024" d="M184 1300q45 207 226 207q63 0 155 -53t154 -53q92 0 119 80h4q-20 -94 -78.5 -150.5t-147.5 -56.5q-68 0 -168 53t-147 53q-92 0 -113 -80h-4z" />
<glyph unicode="&#x2000;" horiz-adv-x="959" />
<glyph unicode="&#x2001;" horiz-adv-x="1919" />
<glyph unicode="&#x2002;" horiz-adv-x="959" />
<glyph unicode="&#x2003;" horiz-adv-x="1919" />
<glyph unicode="&#x2004;" horiz-adv-x="639" />
<glyph unicode="&#x2005;" horiz-adv-x="479" />
<glyph unicode="&#x2006;" horiz-adv-x="319" />
<glyph unicode="&#x2007;" horiz-adv-x="319" />
<glyph unicode="&#x2008;" horiz-adv-x="239" />
<glyph unicode="&#x2009;" horiz-adv-x="383" />
<glyph unicode="&#x200a;" horiz-adv-x="106" />
<glyph unicode="&#x2010;" horiz-adv-x="813" d="M102 578v6q100 0 179 9t122 9q37 0 120.5 -9t187.5 -9v-6q-104 0 -187.5 -9.5t-120.5 -9.5q-43 0 -121.5 9.5t-179.5 9.5z" />
<glyph unicode="&#x2011;" horiz-adv-x="813" d="M102 578v6q100 0 179 9t122 9q37 0 120.5 -9t187.5 -9v-6q-104 0 -187.5 -9.5t-120.5 -9.5q-43 0 -121.5 9.5t-179.5 9.5z" />
<glyph unicode="&#x2012;" horiz-adv-x="813" d="M102 578v6q100 0 179 9t122 9q37 0 120.5 -9t187.5 -9v-6q-104 0 -187.5 -9.5t-120.5 -9.5q-43 0 -121.5 9.5t-179.5 9.5z" />
<glyph unicode="&#x2013;" horiz-adv-x="1064" d="M102 575v7q133 0 241 5t165 5q49 0 162 -5t252 -5v-7q-139 0 -252 -5t-162 -5q-57 0 -164.5 5t-241.5 5z" />
<glyph unicode="&#x2014;" horiz-adv-x="1433" d="M102 575v7q199 0 361 5t248 5q74 0 242.5 -5t377.5 -5v-7q-209 0 -378 -5t-242 -5q-86 0 -248 5t-361 5z" />
<glyph unicode="&#x2018;" horiz-adv-x="614" d="M121 1016q0 182 97.5 305t277.5 170v-8q-147 -39 -235.5 -131t-88.5 -207q0 -31 33 -31q16 0 52 10.5t67 10.5q74 0 122 -44t48 -124q0 -78 -51.5 -127t-129.5 -49q-90 0 -141 61t-51 164z" />
<glyph unicode="&#x2019;" horiz-adv-x="614" d="M121 743v9q147 39 235 131t88 207q0 31 -32 30q-16 0 -52 -10t-67 -10q-74 0 -122 44t-48 124q0 78 51 127t129 49q90 0 141.5 -61.5t51.5 -163.5q0 -182 -97.5 -305.5t-277.5 -170.5z" />
<glyph unicode="&#x201a;" horiz-adv-x="614" d="M121 -348q147 39 235 131t88 207q0 31 -32 30q-16 0 -52 -10t-67 -10q-74 0 -122 44t-48 124q0 78 51 127t129 49q90 0 141.5 -61.5t51.5 -163.5q0 -182 -97.5 -305t-277.5 -170v8z" />
<glyph unicode="&#x201c;" horiz-adv-x="1085" d="M121 1016q0 182 97.5 305t277.5 170v-8q-147 -39 -235.5 -131t-88.5 -207q0 -31 33 -31q16 0 52 10.5t67 10.5q74 0 122 -44t48 -124q0 -78 -51.5 -127t-129.5 -49q-90 0 -141 61t-51 164zM590 1016q0 182 97.5 305t277.5 170v-8q-147 -39 -235.5 -131t-88.5 -207 q0 -31 33 -31q16 0 52 10.5t67 10.5q74 0 122 -44t48 -124q0 -78 -51.5 -127t-129.5 -49q-90 0 -141 61t-51 164z" />
<glyph unicode="&#x201d;" horiz-adv-x="1085" d="M121 743v9q147 39 235 131t88 207q0 31 -32 30q-16 0 -52 -10t-67 -10q-74 0 -122 44t-48 124q0 78 51 127t129 49q90 0 141.5 -61.5t51.5 -163.5q0 -182 -97.5 -305.5t-277.5 -170.5zM590 743v9q147 39 235 131t88 207q0 31 -32 30q-16 0 -52 -10t-67 -10q-74 0 -122 44 t-48 124q0 78 51 127t129 49q90 0 141.5 -61.5t51.5 -163.5q0 -182 -97.5 -305.5t-277.5 -170.5z" />
<glyph unicode="&#x201e;" horiz-adv-x="1085" d="M121 -348q147 39 235 131t88 207q0 31 -32 30q-16 0 -52 -10t-67 -10q-74 0 -122 44t-48 124q0 78 51 127t129 49q90 0 141.5 -61.5t51.5 -163.5q0 -182 -97.5 -305t-277.5 -170v8zM590 -348q147 39 235 131t88 207q0 31 -32 30q-16 0 -52 -10t-67 -10q-74 0 -122 44 t-48 124q0 78 51 127t129 49q90 0 141.5 -61.5t51.5 -163.5q0 -182 -97.5 -305t-277.5 -170v8z" />
<glyph unicode="&#x2022;" horiz-adv-x="962" d="M205 578q0 117 77.5 189.5t200.5 72.5q127 0 201 -70t74 -186.5t-79 -191.5t-202 -75q-127 0 -199.5 71t-72.5 190z" />
<glyph unicode="&#x2026;" horiz-adv-x="1843" d="M123 164q0 80 53 129t135 49q80 0 130.5 -47t50.5 -125q0 -80 -53.5 -131t-133.5 -51q-82 0 -132 49t-50 127zM737 164q0 80 53.5 129t135.5 49q80 0 130 -47t50 -125q0 -80 -53.5 -131t-132.5 -51q-82 0 -132.5 49t-50.5 127zM1352 164q0 80 53 129t135 49q80 0 130 -47 t50 -125q0 -80 -53 -131t-133 -51q-82 0 -132 49t-50 127z" />
<glyph unicode="&#x202f;" horiz-adv-x="383" />
<glyph unicode="&#x2039;" horiz-adv-x="878" d="M102 537q0 37 41 63l633 424v-10l-481 -475l481 -478v-10l-635 426q-39 25 -39 60z" />
<glyph unicode="&#x203a;" horiz-adv-x="878" d="M102 51v10l482 478l-482 475v10l633 -424q41 -27 41 -63q0 -35 -39 -60z" />
<glyph unicode="&#x2044;" horiz-adv-x="59" d="M-295 -51l307 766l328 766h6l-303 -766l-136 -309l-196 -457h-6z" />
<glyph unicode="&#x205f;" horiz-adv-x="479" />
<glyph unicode="&#x20ac;" d="M35 590v6h123q-4 57 -4 119l6 121h-125v6h125q43 305 210 458.5t398 153.5q94 0 191.5 -29.5t152.5 -29.5q53 0 59 59h7v-428h-7q-23 166 -96.5 287t-208.5 121q-141 0 -207.5 -146.5t-80.5 -445.5h419v-6h-419q-2 -39 -3 -109l3 -131h419v-6h-419q4 -70 14 -131.5 t35.5 -136t61.5 -127t96.5 -88t136.5 -35.5q98 0 164.5 55t84.5 154h7q-20 -131 -129 -216t-291 -85q-256 0 -414 166.5t-186 443.5h-123z" />
<glyph unicode="&#x2122;" horiz-adv-x="1994" d="M63 1294v283h7q2 -41 49 -41h647q43 0 49 41h6v-283h-6q-25 236 -190 236h-41v-723h92v-6h-465v6h90v723h-41q-92 0 -134 -61.5t-56 -174.5h-7zM918 799v6q39 0 71.5 36t32.5 107v582h-90v6h395l127 -612l145 612h365v-6h-92v-725h92v-6h-434v6h69v706l-169 -712h-226 l-176 714v-565q0 -74 32 -108.5t73 -34.5v-6h-215z" />
<glyph unicode="&#xe000;" horiz-adv-x="1040" d="M0 1040h1040v-1040h-1040v1040z" />
<glyph unicode="&#xfb01;" horiz-adv-x="1374" d="M20 0v6h140v1026h-140v6h140v29q0 219 154.5 324.5t420.5 105.5q252 0 376 -79t124 -195q0 -74 -49 -116t-129 -42q-76 0 -119 38t-43 97q0 66 43 101.5t117 35.5q14 0 32.5 -3t30.5 -7t15 -4q10 0 10 10q0 14 -8.5 31.5t-35 41.5t-68.5 42t-119 30.5t-177 12.5 q-332 0 -332 -238q0 -31 6.5 -59.5t13.5 -46t22.5 -52t23.5 -57.5h768v-1032h117v-6h-600v6h120v1026h-401q63 -158 64 -360v-666h135v-6h-652z" />
<glyph unicode="&#xfb02;" horiz-adv-x="1425" d="M20 0v6h140v1026h-140v6h140v29q0 219 154.5 324.5t420.5 105.5q285 0 419 -105.5t134 -267.5v-1118h117v-6h-610v6h120v1249q0 231 -249 232q-119 0 -191 -61.5t-72 -178.5q0 -31 6.5 -60.5t14.5 -46.5l24 -50q15 -33 23 -52h248v-6h-246q63 -158 64 -360v-666h135v-6 h-652z" />
<glyph unicode="&#xfb03;" horiz-adv-x="2189" d="M20 0v6h140v1026h-140v6h140v101q0 150 96 242t246 92q127 0 193.5 -54.5t66.5 -142.5q0 -68 -41 -111t-103 -43q-59 0 -94 34t-35 91q0 53 35 86t90 33q16 0 35 -5t30 -10t13 -5q12 0 13 10q0 41 -42 71.5t-112 30.5q-74 0 -118 -47t-44 -119q0 -35 7 -66.5t15.5 -53 t28 -63.5t31.5 -71h248v-6h-246q63 -158 64 -360v-666h135v-6h-652zM794 0v6h140v1026h-140v6h140v101q0 150 96 242t246 92q127 0 193.5 -54.5t66.5 -142.5q0 -68 -41 -111t-103 -43q-59 0 -94 34t-35 91q0 53 35 86t90 33q16 0 35 -5t30 -10t13 -5q12 0 13 10 q0 41 -42 71.5t-112 30.5q-74 0 -118 -47t-44 -119q0 -35 7 -66.5t15.5 -53t28 -63.5t31.5 -71h248v-6h-246q63 -158 64 -360v-666h135v-6h-652zM1568 0v6h121v1026h-121v6h484v-1032h117v-6h-601zM1677 1296.5q0 69.5 55.5 113.5t139.5 44q82 0 134 -42t52 -111.5 t-55.5 -115.5t-137.5 -46q-84 0 -136 44t-52 113.5z" />
<glyph unicode="&#xfb04;" horiz-adv-x="2227" d="M20 0v6h140v1026h-140v6h140v101q0 150 96 242t246 92q127 0 193.5 -54.5t66.5 -142.5q0 -68 -41 -111t-103 -43q-59 0 -94 34t-35 91q0 53 35 86t90 33q16 0 35 -5t30 -10t13 -5q12 0 13 10q0 41 -42 71.5t-112 30.5q-74 0 -118 -47t-44 -119q0 -35 7 -66.5t15.5 -53 t28 -63.5t31.5 -71h248v-6h-246q63 -158 64 -360v-666h135v-6h-652zM794 0v6h140v1026h-140v6h140v101q0 150 96 242t246 92q127 0 193.5 -54.5t66.5 -142.5q0 -68 -41 -111t-103 -43q-59 0 -94 34t-35 91q0 53 35 86t90 33q16 0 35 -5t30 -10t13 -5q12 0 13 10 q0 41 -42 71.5t-112 30.5q-74 0 -118 -47t-44 -119q0 -35 7 -66.5t15.5 -53t28 -63.5t31.5 -71h248v-6h-246q63 -158 64 -360v-666h135v-6h-652zM1568 1427v7h494v-1198q0 -68 16.5 -96.5t59.5 -28.5q78 0 82 112h8q-4 -104 -74.5 -175t-195.5 -71q-111 0 -190 76t-79 215 v1159h-121z" />
</font>
</defs>
</svg>
